<?xml version="1.0" encoding="utf-8"?>
<!-- Generator: Adobe Illustrator 16.0.4, SVG Export Plug-In . SVG Version: 6.00 Build 0)  -->
<!DOCTYPE svg PUBLIC "-//W3C//DTD SVG 1.1//EN" "http://www.w3.org/Graphics/SVG/1.1/DTD/svg11.dtd">
<svg version="1.1" id="Ebene_1" xmlns="http://www.w3.org/2000/svg" xmlns:xlink="http://www.w3.org/1999/xlink" x="0px" y="0px"
	 width="20px" height="60px" viewBox="0 0 20 60" enable-background="new 0 0 20 60" xml:space="preserve">
<path opacity="0.15" d="M18.5,6.5c0-2.208-1.487-4-3.761-4c-0.914,0-1.739,0.299-2.422,0.789C11.58,2.794,10.695,2.5,9.73,2.5
	c-0.767,0-1.475,0.201-2.109,0.524c-0.595-0.324-1.27-0.524-2-0.524c-2.272,0-4.18,1.789-4.18,3.997C1.441,8.344,2,9.542,4,10v8h12
	v-8C18,9.652,18.5,8.454,18.5,6.5z"/>
<path fill="#FFDA00" d="M18.5,26.5c0-2.208-1.487-4-3.761-4c-0.914,0-1.739,0.299-2.422,0.789C11.58,22.794,10.695,22.5,9.73,22.5
	c-0.767,0-1.475,0.201-2.109,0.524c-0.595-0.323-1.27-0.524-2-0.524c-2.272,0-4.18,1.789-4.18,3.997C1.441,28.344,2,29.542,4,30v8
	h12v-8C18,29.652,18.5,28.453,18.5,26.5z"/>
<path fill="#FF7300" d="M18.5,46.5c0-2.208-1.487-4-3.761-4c-0.914,0-1.739,0.299-2.422,0.789C11.58,42.794,10.695,42.5,9.73,42.5
	c-0.767,0-1.475,0.201-2.109,0.524c-0.595-0.323-1.27-0.524-2-0.524c-2.272,0-4.18,1.789-4.18,3.997C1.441,48.344,2,49.542,4,50v8
	h12v-8C18,49.652,18.5,48.453,18.5,46.5z"/>
</svg>
