<?xml version="1.0" encoding="utf-8"?>
<!DOCTYPE svg PUBLIC "-//W3C//DTD SVG 1.1//EN" "http://www.w3.org/Graphics/SVG/1.1/DTD/svg11.dtd">
<svg version="1.1" id="Ebene_1" xmlns="http://www.w3.org/2000/svg" xmlns:xlink="http://www.w3.org/1999/xlink" x="0px" y="0px"
	 width="550px" height="380px" viewBox="0 0 550 380" enable-background="new 0 0 550 380" xml:space="preserve">
<g id="widget_layouts">
	<g id="equal_bg" opacity="0.1">
		<rect x="290" y="175" fill="#777777" width="260" height="27"/>
	</g>
	<g id="widget_2_" opacity="0.15">
		<rect x="344" y="180" width="64" height="17"/>
	</g>
	<g id="widget_1_" opacity="0.15">
		<rect x="413" y="180" width="63" height="17"/>
	</g>
	<g id="widget" opacity="0.15">
		<rect x="481" y="180" width="64" height="17"/>
	</g>
	<g id="double_bg" opacity="0.1">
		<rect x="290" y="261" fill="#777777" width="260" height="27"/>
	</g>
	<g id="widget_4_" opacity="0.15">
		<rect x="344" y="266" width="132" height="17"/>
	</g>
	<g id="widget_3_" opacity="0.15">
		<rect x="481" y="266" width="64" height="17"/>
	</g>
	<g id="stack_bg" opacity="0.1">
		<rect x="290" y="207" fill="#777777" width="260" height="49"/>
	</g>
	<g id="widget_5_" opacity="0.15">
		<rect x="344" y="212" width="201" height="17"/>
	</g>
	<g id="widget_6_" opacity="0.15">
		<rect x="344" y="234" width="201" height="17"/>
	</g>
	<g>
		<path fill="#444444" d="M299.375,164.876h-1.066l-1.871-6.214c-0.09-0.275-0.188-0.622-0.299-1.041
			c-0.109-0.419-0.168-0.671-0.172-0.755c-0.093,0.559-0.24,1.17-0.443,1.834l-1.812,6.176h-1.064l-2.471-9.278h1.145l1.47,5.73
			c0.201,0.804,0.353,1.531,0.44,2.184c0.112-0.771,0.281-1.531,0.508-2.271l1.664-5.646h1.146l1.744,5.693
			c0.201,0.653,0.375,1.396,0.517,2.222c0.079-0.601,0.23-1.33,0.456-2.193l1.46-5.719h1.146L299.375,164.876z"/>
		<path fill="#444444" d="M303.062,156.034c0-0.241,0.061-0.418,0.179-0.53c0.118-0.111,0.268-0.168,0.442-0.168
			c0.168,0,0.312,0.059,0.438,0.171c0.123,0.114,0.187,0.29,0.187,0.527c0,0.235-0.062,0.414-0.187,0.528
			c-0.122,0.117-0.271,0.177-0.438,0.177c-0.181,0-0.324-0.06-0.442-0.177S303.062,156.271,303.062,156.034z M304.205,164.876
			h-1.054v-6.957h1.054V164.876z"/>
		<path fill="#444444" d="M311.176,163.941h-0.059c-0.485,0.707-1.214,1.062-2.187,1.062c-0.906,0-1.615-0.312-2.123-0.935
			c-0.506-0.62-0.76-1.506-0.76-2.651s0.256-2.038,0.766-2.672c0.509-0.636,1.215-0.952,2.117-0.952
			c0.941,0,1.668,0.344,2.174,1.027h0.08l-0.045-0.502l-0.022-0.487V155h1.056v9.876h-0.854L311.176,163.941z M309.068,164.121
			c0.72,0,1.238-0.196,1.562-0.587c0.323-0.392,0.484-1.023,0.484-1.896v-0.226c0-0.983-0.163-1.688-0.491-2.108
			c-0.327-0.424-0.854-0.634-1.57-0.634c-0.614,0-1.091,0.24-1.419,0.724c-0.325,0.479-0.489,1.155-0.489,2.035
			c0,0.889,0.162,1.56,0.486,2.012C307.959,163.895,308.438,164.121,309.068,164.121z"/>
		<path fill="#444444" d="M320.1,157.919v0.667l-1.285,0.15c0.115,0.146,0.227,0.344,0.314,0.582
			c0.094,0.238,0.141,0.51,0.141,0.811c0,0.682-0.229,1.227-0.697,1.631c-0.465,0.406-1.104,0.609-1.914,0.609
			c-0.207,0-0.401-0.018-0.586-0.053c-0.446,0.238-0.674,0.535-0.674,0.896c0,0.188,0.076,0.331,0.232,0.422
			c0.156,0.093,0.426,0.14,0.809,0.14h1.229c0.753,0,1.332,0.158,1.734,0.478c0.402,0.315,0.604,0.776,0.604,1.384
			c0,0.771-0.311,1.356-0.929,1.764c-0.616,0.401-1.521,0.604-2.702,0.604c-0.91,0-1.608-0.169-2.104-0.508
			c-0.491-0.342-0.737-0.817-0.737-1.438c0-0.425,0.136-0.789,0.405-1.1c0.271-0.311,0.647-0.521,1.145-0.628
			c-0.179-0.081-0.327-0.205-0.446-0.375c-0.121-0.169-0.184-0.366-0.184-0.591c0-0.256,0.063-0.479,0.203-0.666
			c0.137-0.191,0.351-0.375,0.642-0.555c-0.356-0.146-0.649-0.397-0.879-0.754c-0.229-0.354-0.341-0.765-0.341-1.222
			c0-0.762,0.229-1.351,0.688-1.761c0.457-0.413,1.104-0.619,1.941-0.619c0.363,0,0.69,0.042,0.981,0.127L320.1,157.919
			L320.1,157.919z M314.553,166.044c0,0.376,0.158,0.662,0.479,0.856c0.316,0.191,0.771,0.291,1.361,0.291
			c0.887,0,1.541-0.131,1.967-0.396c0.429-0.264,0.643-0.623,0.643-1.074c0-0.378-0.117-0.64-0.354-0.783
			c-0.229-0.146-0.672-0.222-1.312-0.222h-1.266c-0.479,0-0.854,0.114-1.115,0.345C314.688,165.289,314.553,165.617,314.553,166.044
			z M315.122,160.146c0,0.483,0.139,0.854,0.413,1.104c0.272,0.249,0.657,0.375,1.147,0.375c1.023,0,1.541-0.5,1.541-1.498
			c0-1.045-0.521-1.566-1.562-1.566c-0.494,0-0.876,0.133-1.146,0.398C315.255,159.229,315.122,159.622,315.122,160.146z"/>
		<path fill="#444444" d="M324.469,165.003c-1.027,0-1.84-0.312-2.436-0.938c-0.596-0.625-0.894-1.496-0.894-2.605
			c0-1.122,0.271-2.016,0.828-2.672c0.552-0.66,1.293-0.99,2.227-0.99c0.871,0,1.562,0.287,2.066,0.858
			c0.509,0.571,0.764,1.329,0.764,2.271v0.667h-4.791c0.021,0.817,0.228,1.438,0.615,1.86c0.394,0.423,0.939,0.635,1.651,0.635
			c0.75,0,1.489-0.154,2.227-0.47v0.938c-0.373,0.159-0.729,0.274-1.062,0.346C325.339,164.968,324.938,165.003,324.469,165.003z
			 M324.184,158.674c-0.561,0-1.004,0.184-1.336,0.547c-0.332,0.363-0.527,0.867-0.588,1.512h3.637c0-0.666-0.146-1.174-0.439-1.524
			C325.156,158.852,324.732,158.674,324.184,158.674z"/>
		<path fill="#444444" d="M331.068,164.133c0.188,0,0.365-0.014,0.541-0.042c0.173-0.026,0.312-0.056,0.41-0.085v0.807
			c-0.113,0.059-0.281,0.104-0.506,0.141c-0.225,0.033-0.424,0.054-0.603,0.054c-1.349,0-2.021-0.709-2.021-2.126v-4.142H327.9
			v-0.509l0.996-0.438l0.44-1.482h0.608v1.609h2.02v0.816h-2.02v4.097c0,0.419,0.101,0.74,0.298,0.965
			C330.448,164.021,330.723,164.133,331.068,164.133z"/>
		<path fill="#444444" d="M336.947,164.876v-9.278h1.08v8.303h4.094v0.979L336.947,164.876L336.947,164.876z"/>
		<path fill="#444444" d="M347.814,164.876l-0.215-0.99h-0.051c-0.348,0.438-0.688,0.731-1.037,0.888
			c-0.345,0.152-0.771,0.229-1.29,0.229c-0.688,0-1.229-0.178-1.623-0.532c-0.394-0.354-0.586-0.861-0.586-1.518
			c0-1.405,1.123-2.143,3.368-2.209l1.187-0.038v-0.433c0-0.547-0.118-0.948-0.354-1.209c-0.23-0.26-0.605-0.394-1.127-0.394
			c-0.58,0-1.234,0.181-1.969,0.533l-0.323-0.81c0.345-0.187,0.72-0.332,1.127-0.438c0.407-0.104,0.817-0.158,1.229-0.158
			c0.829,0,1.439,0.186,1.844,0.553c0.396,0.369,0.601,0.959,0.601,1.771v4.75h-0.777L347.814,164.876L347.814,164.876z
			 M345.436,164.133c0.654,0,1.175-0.18,1.549-0.54c0.375-0.358,0.562-0.862,0.562-1.511v-0.628l-1.056,0.044
			c-0.84,0.029-1.44,0.16-1.812,0.393c-0.369,0.229-0.557,0.588-0.557,1.074c0,0.383,0.114,0.672,0.347,0.87
			C344.695,164.034,345.02,164.133,345.436,164.133z"/>
		<path fill="#444444" d="M349.66,157.919h1.131l1.522,3.967c0.334,0.906,0.542,1.562,0.617,1.962h0.056
			c0.056-0.217,0.17-0.586,0.347-1.104c0.176-0.521,0.75-2.133,1.724-4.821h1.135l-2.989,7.922
			c-0.297,0.783-0.646,1.341-1.038,1.666c-0.396,0.328-0.882,0.492-1.456,0.492c-0.321,0-0.64-0.036-0.952-0.104v-0.848
			c0.231,0.055,0.493,0.076,0.78,0.076c0.724,0,1.239-0.404,1.55-1.221l0.387-0.988L349.66,157.919z"/>
		<path fill="#444444" d="M363.321,161.393c0,1.133-0.286,2.021-0.855,2.655c-0.572,0.638-1.356,0.955-2.368,0.955
			c-0.622,0-1.175-0.146-1.652-0.438c-0.481-0.293-0.854-0.711-1.117-1.258c-0.267-0.547-0.396-1.186-0.396-1.916
			c0-1.136,0.283-2.02,0.854-2.647c0.562-0.636,1.354-0.949,2.356-0.949c0.979,0,1.747,0.324,2.32,0.974
			C363.033,159.41,363.321,160.287,363.321,161.393z M358.021,161.393c0,0.892,0.178,1.564,0.528,2.029
			c0.354,0.467,0.878,0.698,1.566,0.698c0.688,0,1.214-0.231,1.571-0.695c0.354-0.464,0.531-1.142,0.531-2.034
			c0-0.885-0.179-1.557-0.531-2.016c-0.357-0.459-0.891-0.688-1.585-0.688c-0.688,0-1.211,0.228-1.562,0.68
			C358.194,159.816,358.021,160.494,358.021,161.393z"/>
		<path fill="#444444" d="M366.158,157.919v4.515c0,0.565,0.129,0.988,0.388,1.271c0.259,0.277,0.663,0.419,1.213,0.419
			c0.729,0,1.26-0.199,1.602-0.599c0.336-0.396,0.505-1.047,0.505-1.947v-3.656h1.054v6.956h-0.869l-0.15-0.935h-0.059
			c-0.218,0.345-0.517,0.604-0.896,0.787c-0.386,0.184-0.818,0.271-1.312,0.271c-0.848,0-1.479-0.201-1.899-0.604
			c-0.423-0.399-0.634-1.045-0.634-1.932v-4.551h1.063L366.158,157.919L366.158,157.919z"/>
		<path fill="#444444" d="M375.396,164.133c0.187,0,0.361-0.014,0.535-0.042c0.178-0.026,0.312-0.056,0.412-0.085v0.807
			c-0.109,0.059-0.277,0.104-0.505,0.141c-0.223,0.033-0.423,0.054-0.601,0.054c-1.351,0-2.021-0.709-2.021-2.126v-4.142h-0.996
			v-0.509l0.996-0.438l0.443-1.482h0.607v1.609h2.021v0.816h-2.021v4.097c0,0.419,0.102,0.74,0.3,0.965
			C374.775,164.021,375.049,164.133,375.396,164.133z"/>
		<path fill="#444444" d="M382.226,162.979c0,0.646-0.237,1.146-0.725,1.498c-0.483,0.354-1.159,0.526-2.031,0.526
			c-0.922,0-1.643-0.146-2.157-0.438v-0.979c0.339,0.169,0.692,0.305,1.075,0.398c0.388,0.099,0.752,0.146,1.106,0.146
			c0.552,0,0.975-0.088,1.271-0.263c0.297-0.178,0.445-0.443,0.445-0.805c0-0.271-0.118-0.502-0.354-0.693
			c-0.235-0.193-0.693-0.42-1.374-0.686c-0.647-0.24-1.107-0.451-1.386-0.632c-0.271-0.182-0.478-0.386-0.604-0.612
			c-0.134-0.229-0.199-0.5-0.199-0.816c0-0.564,0.229-1.018,0.691-1.342c0.461-0.328,1.094-0.492,1.896-0.492
			c0.749,0,1.48,0.15,2.195,0.457l-0.375,0.855c-0.696-0.289-1.33-0.435-1.896-0.435c-0.499,0-0.876,0.078-1.13,0.233
			c-0.254,0.156-0.382,0.373-0.382,0.646c0,0.188,0.049,0.35,0.144,0.479c0.101,0.132,0.249,0.257,0.466,0.375
			c0.211,0.119,0.612,0.289,1.219,0.515c0.824,0.3,1.382,0.604,1.672,0.908C382.079,162.131,382.226,162.518,382.226,162.979z"/>
	</g>
</g>
<g id="sidebar_layouts">
	<g>
		<path fill="#444444" d="M296.514,7.531c0,0.817-0.297,1.454-0.89,1.911c-0.595,0.457-1.396,0.686-2.412,0.686
			c-1.103,0-1.946-0.142-2.539-0.425V8.662c0.382,0.161,0.796,0.288,1.244,0.381c0.446,0.093,0.894,0.14,1.333,0.14
			c0.721,0,1.262-0.136,1.625-0.41c0.361-0.272,0.546-0.652,0.546-1.139c0-0.322-0.063-0.585-0.192-0.791
			c-0.129-0.205-0.346-0.395-0.646-0.568c-0.306-0.173-0.767-0.37-1.381-0.59c-0.863-0.309-1.479-0.675-1.854-1.098
			c-0.371-0.423-0.558-0.976-0.558-1.657c0-0.715,0.271-1.284,0.808-1.708c0.536-0.424,1.248-0.635,2.133-0.635
			c0.928,0,1.771,0.169,2.545,0.508l-0.336,0.939c-0.767-0.322-1.51-0.482-2.229-0.482c-0.569,0-1.021,0.123-1.34,0.368
			c-0.321,0.246-0.479,0.586-0.479,1.022c0,0.322,0.062,0.585,0.178,0.79c0.119,0.206,0.316,0.394,0.604,0.565
			c0.28,0.171,0.712,0.36,1.292,0.568c0.974,0.347,1.644,0.719,2.011,1.117C296.336,6.38,296.514,6.896,296.514,7.531z"/>
		<path fill="#444444" d="M298.162,1.158c0-0.241,0.061-0.418,0.179-0.53c0.118-0.112,0.269-0.168,0.443-0.168
			c0.169,0,0.312,0.057,0.438,0.171c0.123,0.114,0.188,0.29,0.188,0.527c0,0.237-0.062,0.414-0.188,0.53
			c-0.121,0.117-0.27,0.175-0.438,0.175c-0.179,0-0.325-0.058-0.443-0.175S298.162,1.395,298.162,1.158z M299.307,10h-1.055V3.043
			h1.055V10z"/>
		<path fill="#444444" d="M306.275,9.067h-0.062c-0.482,0.707-1.215,1.06-2.185,1.06c-0.909,0-1.617-0.311-2.123-0.933
			c-0.508-0.622-0.761-1.506-0.761-2.653s0.257-2.038,0.765-2.672c0.509-0.634,1.214-0.952,2.119-0.952
			c0.939,0,1.668,0.343,2.172,1.028h0.082l-0.045-0.501l-0.024-0.489V0.124h1.059V10h-0.856L306.275,9.067z M304.168,9.245
			c0.721,0,1.24-0.196,1.563-0.587c0.322-0.391,0.48-1.023,0.48-1.895V6.541c0-0.986-0.16-1.689-0.488-2.111
			c-0.327-0.421-0.854-0.631-1.57-0.631c-0.617,0-1.091,0.24-1.418,0.72c-0.328,0.48-0.491,1.159-0.491,2.035
			c0,0.889,0.161,1.56,0.486,2.012C303.059,9.018,303.536,9.245,304.168,9.245z"/>
		<path fill="#444444" d="M312.445,10.127c-1.028,0-1.84-0.313-2.438-0.939c-0.596-0.626-0.893-1.496-0.893-2.609
			c0-1.122,0.271-2.012,0.825-2.672c0.555-0.66,1.297-0.99,2.229-0.99c0.871,0,1.562,0.287,2.068,0.86
			c0.508,0.573,0.762,1.33,0.762,2.269v0.667h-4.791c0.021,0.817,0.229,1.437,0.617,1.86c0.392,0.423,0.938,0.635,1.648,0.635
			c0.75,0,1.49-0.157,2.228-0.47v0.939c-0.373,0.161-0.729,0.276-1.062,0.346C313.314,10.092,312.913,10.127,312.445,10.127z
			 M312.158,3.798c-0.562,0-1.005,0.182-1.336,0.546c-0.332,0.364-0.527,0.868-0.587,1.511h3.637c0-0.665-0.147-1.173-0.442-1.527
			C313.133,3.975,312.709,3.798,312.158,3.798z"/>
		<path fill="#444444" d="M320.036,2.929c0.914,0,1.624,0.312,2.13,0.937c0.507,0.624,0.759,1.507,0.759,2.65
			s-0.255,2.03-0.766,2.663c-0.51,0.633-1.219,0.949-2.123,0.949c-0.452,0-0.865-0.083-1.24-0.251
			c-0.374-0.167-0.688-0.424-0.941-0.771h-0.075L317.557,10H316.8V0.123h1.054v2.399c0,0.538-0.017,1.02-0.051,1.447h0.051
			C318.346,3.276,319.072,2.929,320.036,2.929z M319.885,3.811c-0.721,0-1.234,0.207-1.557,0.619
			c-0.314,0.413-0.478,1.108-0.478,2.085s0.162,1.677,0.486,2.098c0.324,0.421,0.852,0.631,1.566,0.631
			c0.646,0,1.13-0.236,1.442-0.708c0.316-0.472,0.479-1.15,0.479-2.035c0-0.906-0.157-1.581-0.479-2.025
			C321.037,4.032,320.549,3.811,319.885,3.811z"/>
		<path fill="#444444" d="M329.044,10l-0.21-0.99h-0.052c-0.35,0.436-0.691,0.731-1.037,0.886c-0.346,0.154-0.774,0.231-1.292,0.231
			c-0.688,0-1.229-0.178-1.621-0.533c-0.394-0.354-0.588-0.861-0.588-1.517c0-1.405,1.124-2.141,3.37-2.209l1.183-0.038V5.398
			c0-0.546-0.117-0.949-0.354-1.209c-0.233-0.26-0.608-0.39-1.127-0.39c-0.58,0-1.234,0.178-1.969,0.533l-0.322-0.806
			c0.344-0.186,0.719-0.332,1.127-0.438c0.406-0.106,0.816-0.159,1.229-0.159c0.829,0,1.443,0.184,1.844,0.552
			c0.401,0.368,0.604,0.958,0.604,1.771V10H329.044z M326.663,9.257c0.654,0,1.172-0.18,1.546-0.54
			c0.375-0.36,0.562-0.863,0.562-1.511V6.578l-1.06,0.044c-0.839,0.03-1.438,0.16-1.812,0.391c-0.369,0.23-0.559,0.589-0.559,1.076
			c0,0.381,0.113,0.671,0.348,0.87C325.925,9.158,326.248,9.257,326.663,9.257z"/>
		<path fill="#444444" d="M335.17,2.916c0.309,0,0.586,0.025,0.832,0.076l-0.146,0.978c-0.287-0.062-0.541-0.095-0.764-0.095
			c-0.562,0-1.044,0.229-1.441,0.686c-0.396,0.457-0.603,1.026-0.603,1.708V10h-1.055V3.043h0.869l0.121,1.289h0.051
			c0.259-0.453,0.568-0.802,0.935-1.047C334.334,3.039,334.734,2.916,335.17,2.916z"/>
		<path fill="#444444" d="M341,10V0.72h1.079v8.303h4.095V10H341z"/>
		<path fill="#444444" d="M351.866,10l-0.21-0.99h-0.051c-0.352,0.436-0.692,0.731-1.037,0.886c-0.35,0.154-0.774,0.231-1.292,0.231
			c-0.688,0-1.229-0.178-1.622-0.533c-0.396-0.354-0.587-0.861-0.587-1.517c0-1.405,1.124-2.141,3.37-2.209l1.182-0.038V5.398
			c0-0.546-0.117-0.949-0.354-1.209c-0.23-0.26-0.605-0.39-1.127-0.39c-0.58,0-1.23,0.178-1.968,0.533l-0.324-0.806
			c0.349-0.186,0.724-0.332,1.127-0.438c0.408-0.106,0.818-0.159,1.229-0.159c0.829,0,1.444,0.184,1.845,0.552
			c0.399,0.368,0.604,0.958,0.604,1.771V10H351.866z M349.487,9.257c0.65,0,1.171-0.18,1.545-0.54
			c0.375-0.36,0.562-0.863,0.562-1.511V6.578l-1.056,0.044c-0.838,0.03-1.44,0.16-1.812,0.391c-0.365,0.23-0.556,0.589-0.556,1.076
			c0,0.381,0.114,0.671,0.346,0.87S349.072,9.257,349.487,9.257z"/>
		<path fill="#444444" d="M353.715,3.043h1.13l1.522,3.967c0.334,0.906,0.542,1.56,0.622,1.961h0.052
			c0.055-0.216,0.17-0.585,0.346-1.107c0.181-0.523,0.75-2.13,1.729-4.821h1.13l-2.988,7.922c-0.297,0.783-0.644,1.338-1.038,1.666
			c-0.396,0.328-0.882,0.492-1.457,0.492c-0.317,0-0.64-0.036-0.952-0.108v-0.844c0.232,0.051,0.493,0.076,0.781,0.076
			c0.725,0,1.238-0.406,1.549-1.219l0.392-0.99L353.715,3.043z"/>
		<path fill="#444444" d="M367.375,6.515c0,1.134-0.286,2.02-0.856,2.657c-0.567,0.637-1.356,0.955-2.363,0.955
			c-0.622,0-1.18-0.146-1.657-0.438c-0.481-0.292-0.854-0.711-1.116-1.257c-0.263-0.546-0.394-1.185-0.394-1.917
			c0-1.134,0.278-2.018,0.851-2.65c0.566-0.633,1.354-0.949,2.36-0.949c0.975,0,1.747,0.324,2.315,0.971
			C367.088,4.534,367.375,5.411,367.375,6.515z M362.074,6.515c0,0.889,0.179,1.566,0.533,2.031
			c0.354,0.465,0.878,0.698,1.562,0.698c0.688,0,1.214-0.232,1.57-0.695c0.354-0.464,0.536-1.142,0.536-2.035
			c0-0.884-0.183-1.556-0.536-2.015c-0.356-0.459-0.887-0.689-1.584-0.689c-0.688,0-1.21,0.227-1.562,0.679
			C362.247,4.941,362.074,5.618,362.074,6.515z"/>
		<path fill="#444444" d="M370.212,3.043v4.513c0,0.567,0.129,0.99,0.387,1.27c0.264,0.279,0.663,0.419,1.214,0.419
			c0.729,0,1.264-0.199,1.601-0.597c0.336-0.398,0.506-1.047,0.506-1.949V3.043h1.053V10h-0.87l-0.147-0.933h-0.062
			c-0.217,0.343-0.516,0.605-0.896,0.787s-0.819,0.273-1.312,0.273c-0.847,0-1.479-0.201-1.896-0.603s-0.632-1.045-0.632-1.93V3.043
			H370.212z"/>
		<path fill="#444444" d="M379.448,9.257c0.188,0,0.366-0.014,0.54-0.042c0.173-0.027,0.312-0.056,0.412-0.085v0.806
			c-0.114,0.055-0.282,0.101-0.51,0.137c-0.222,0.036-0.422,0.054-0.601,0.054c-1.346,0-2.02-0.709-2.02-2.126V3.862h-0.995V3.354
			l0.995-0.438l0.44-1.485h0.608v1.612h2.02v0.819h-2.02v4.094c0,0.419,0.101,0.741,0.298,0.965
			C378.827,9.145,379.102,9.257,379.448,9.257z"/>
		<path fill="#444444" d="M386.278,8.102c0,0.647-0.242,1.147-0.729,1.498c-0.479,0.351-1.159,0.527-2.026,0.527
			c-0.927,0-1.646-0.146-2.158-0.438V8.711c0.335,0.169,0.688,0.303,1.076,0.4c0.383,0.097,0.752,0.146,1.104,0.146
			c0.551,0,0.979-0.088,1.271-0.263c0.297-0.176,0.44-0.443,0.44-0.803c0-0.271-0.118-0.502-0.354-0.695
			c-0.234-0.193-0.692-0.42-1.374-0.683c-0.647-0.241-1.107-0.452-1.381-0.632c-0.272-0.18-0.479-0.384-0.609-0.612
			c-0.134-0.229-0.199-0.501-0.199-0.819c0-0.567,0.229-1.015,0.691-1.342c0.461-0.328,1.094-0.492,1.896-0.492
			c0.749,0,1.48,0.152,2.195,0.457l-0.375,0.857c-0.696-0.288-1.329-0.432-1.896-0.432c-0.499,0-0.878,0.078-1.133,0.235
			c-0.254,0.157-0.381,0.373-0.381,0.647c0,0.186,0.048,0.345,0.146,0.476c0.096,0.131,0.249,0.256,0.461,0.375
			c0.211,0.119,0.615,0.29,1.219,0.514c0.824,0.3,1.383,0.603,1.673,0.908C386.132,7.258,386.278,7.641,386.278,8.102z"/>
	</g>
	<rect id="sidebar-a_10_" x="290" y="21" opacity="0.2" enable-background="new    " width="9" height="43"/>
	<rect id="sidebar-b_5_" x="304" y="21" opacity="0.2" enable-background="new    " width="9" height="43"/>
	<rect id="content_12_" x="318" y="21" opacity="0.05" enable-background="new    " width="40" height="43"/>
	<rect id="sidebar-a_9_" x="432" y="21" opacity="0.2" enable-background="new    " width="9" height="43"/>
	<rect id="sidebar-b_4_" x="446" y="21" opacity="0.2" enable-background="new    " width="9" height="43"/>
	<rect id="content_11_" x="388" y="21" opacity="0.05" enable-background="new    " width="39" height="43"/>
	<rect id="sidebar-a_8_" x="481" y="21" opacity="0.2" enable-background="new    " width="9" height="43"/>
	<rect id="sidebar-b_3_" x="541" y="21" opacity="0.2" enable-background="new    " width="9" height="43"/>
	<rect id="content_10_" x="495" y="21" opacity="0.05" enable-background="new    " width="41" height="43"/>
	<rect id="sidebar-a_7_" x="290" y="84" opacity="0.2" enable-background="new    " width="9" height="43"/>
	<rect id="content_9_" x="304" y="84" opacity="0.05" enable-background="new    " width="53" height="43"/>
	<rect id="sidebar-a_6_" x="446" y="84" opacity="0.2" enable-background="new    " width="9" height="43"/>
	<rect id="content_8_" x="388" y="84" opacity="0.05" enable-background="new    " width="53" height="43"/>
	<rect id="content_7_" x="482" y="84" opacity="0.05" enable-background="new    " width="68" height="43"/>
</g>
<g>
	<path fill="#444444" d="M300.956,187.447c0,0.65-0.222,1.15-0.665,1.501c-0.443,0.35-1.078,0.524-1.904,0.524h-0.756V192h-0.748
		v-6.425h1.666C300.154,185.575,300.956,186.199,300.956,187.447z M297.631,188.832h0.672c0.662,0,1.143-0.107,1.438-0.321
		c0.295-0.214,0.441-0.557,0.441-1.028c0-0.424-0.14-0.739-0.418-0.947c-0.276-0.208-0.711-0.312-1.301-0.312h-0.834
		L297.631,188.832L297.631,188.832z"/>
	<path fill="#444444" d="M306.34,192l-0.801-2.043h-2.574L302.174,192h-0.756l2.539-6.451h0.629l2.526,6.451H306.34z
		 M305.307,189.284l-0.746-1.991c-0.098-0.251-0.195-0.561-0.299-0.927c-0.063,0.28-0.155,0.591-0.275,0.927l-0.758,1.991H305.307z"
		/>
	<path fill="#444444" d="M308.743,189.328V192h-0.748v-6.425h1.764c0.788,0,1.37,0.151,1.747,0.452
		c0.376,0.303,0.563,0.756,0.563,1.363c0,0.85-0.433,1.424-1.292,1.723l1.745,2.887h-0.886l-1.557-2.672H308.743z M308.743,188.688
		h1.021c0.527,0,0.914-0.104,1.16-0.313s0.369-0.522,0.369-0.94c0-0.427-0.125-0.73-0.376-0.918
		c-0.25-0.188-0.652-0.281-1.206-0.281h-0.972L308.743,188.688L308.743,188.688z"/>
	<path fill="#444444" d="M317.6,192l-0.8-2.043h-2.575L313.434,192h-0.756l2.54-6.451h0.628l2.526,6.451H317.6z M316.566,189.284
		l-0.746-1.991c-0.1-0.251-0.197-0.561-0.299-0.927c-0.065,0.28-0.157,0.591-0.277,0.927l-0.756,1.991H316.566z"/>
	<path fill="#444444" d="M319.256,192v-6.425h0.748v5.748h2.834V192H319.256z"/>
	<path fill="#444444" d="M327.509,192h-3.582v-6.425h3.582v0.663h-2.834v2.07h2.662v0.657h-2.662v2.364h2.834V192z"/>
	<path fill="#444444" d="M328.932,192v-6.425h0.748v5.748h2.834V192H328.932z"/>
	<path fill="#444444" d="M333.604,192v-6.425h0.748v5.748h2.834V192H333.604z"/>
	<path fill="#444444" d="M300.509,233.091c0,0.565-0.205,1.007-0.615,1.322c-0.408,0.315-0.967,0.476-1.67,0.476
		c-0.762,0-1.348-0.099-1.758-0.296v-0.721c0.265,0.112,0.552,0.2,0.861,0.265c0.311,0.064,0.617,0.098,0.923,0.098
		c0.497,0,0.872-0.096,1.125-0.282c0.252-0.188,0.378-0.451,0.378-0.788c0-0.225-0.046-0.405-0.135-0.548
		c-0.09-0.144-0.238-0.272-0.447-0.396c-0.21-0.119-0.528-0.257-0.956-0.408c-0.598-0.215-1.023-0.467-1.281-0.76
		c-0.256-0.294-0.385-0.677-0.385-1.146c0-0.495,0.188-0.892,0.559-1.185c0.373-0.293,0.864-0.438,1.479-0.438
		c0.639,0,1.228,0.115,1.762,0.354l-0.23,0.648c-0.529-0.225-1.046-0.334-1.547-0.334c-0.396,0-0.705,0.086-0.93,0.256
		c-0.223,0.17-0.333,0.404-0.333,0.707c0,0.225,0.041,0.402,0.123,0.547c0.081,0.145,0.222,0.271,0.415,0.395
		c0.193,0.117,0.492,0.25,0.896,0.394c0.673,0.24,1.138,0.498,1.392,0.772C300.382,232.294,300.509,232.65,300.509,233.091z"/>
	<path fill="#444444" d="M303.801,234.8h-0.748v-5.762h-2.034v-0.663h4.816v0.663h-2.034V234.8L303.801,234.8z"/>
	<path fill="#444444" d="M310.84,234.8l-0.801-2.043h-2.574l-0.791,2.043h-0.756l2.539-6.45h0.629l2.526,6.45H310.84z
		 M309.807,232.084l-0.746-1.991c-0.098-0.251-0.195-0.561-0.299-0.927c-0.063,0.281-0.155,0.591-0.275,0.927l-0.758,1.991H309.807z
		"/>
	<path fill="#444444" d="M315.247,228.95c-0.707,0-1.264,0.235-1.673,0.706c-0.408,0.47-0.611,1.113-0.611,1.931
		c0,0.843,0.195,1.491,0.591,1.949c0.396,0.459,0.956,0.688,1.687,0.688c0.448,0,0.96-0.08,1.534-0.242v0.656
		c-0.445,0.166-0.995,0.25-1.646,0.25c-0.947,0-1.678-0.287-2.19-0.861c-0.514-0.574-0.771-1.393-0.771-2.447
		c0-0.662,0.124-1.242,0.372-1.74c0.247-0.498,0.604-0.882,1.072-1.152c0.467-0.269,1.017-0.401,1.647-0.401
		c0.674,0,1.264,0.123,1.77,0.366l-0.315,0.646C316.22,229.064,315.733,228.95,315.247,228.95z"/>
	<path fill="#444444" d="M322.814,234.8h-0.881l-2.342-3.114l-0.672,0.6v2.518h-0.748v-6.425h0.748v3.188l2.912-3.188h0.885
		l-2.584,2.79L322.814,234.8z"/>
	<path fill="#444444" d="M327.28,234.8h-3.582v-6.425h3.582v0.663h-2.834v2.069h2.662v0.66h-2.662v2.361h2.834V234.8z"/>
	<path fill="#444444" d="M333.831,231.525c0,1.062-0.287,1.871-0.862,2.433c-0.576,0.562-1.402,0.842-2.483,0.842h-1.78v-6.425h1.97
		c0.999,0,1.774,0.275,2.33,0.831C333.555,229.759,333.831,230.532,333.831,231.525z M333.04,231.552
		c0-0.837-0.21-1.469-0.631-1.894c-0.42-0.426-1.045-0.639-1.874-0.639h-1.085v5.133h0.909c0.891,0,1.561-0.219,2.009-0.655
		C332.816,233.059,333.04,232.411,333.04,231.552z"/>
	<path fill="#444444" d="M302.012,274.326c0,1.061-0.288,1.871-0.861,2.432c-0.576,0.562-1.404,0.842-2.485,0.842h-1.778v-6.425
		h1.969c0.998,0,1.774,0.276,2.329,0.831C301.734,272.559,302.012,273.332,302.012,274.326z M301.221,274.352
		c0-0.836-0.21-1.469-0.631-1.894c-0.42-0.425-1.045-0.638-1.874-0.638h-1.085v5.133h0.908c0.892,0,1.561-0.219,2.01-0.656
		C300.995,275.857,301.221,275.211,301.221,274.352z"/>
	<path fill="#444444" d="M309.021,274.379c0,1.027-0.262,1.836-0.78,2.426c-0.521,0.588-1.243,0.883-2.168,0.883
		c-0.946,0-1.677-0.289-2.19-0.867c-0.515-0.576-0.771-1.396-0.771-2.448c0-1.045,0.258-1.854,0.771-2.435
		c0.518-0.576,1.248-0.86,2.196-0.86c0.925,0,1.646,0.293,2.162,0.879C308.762,272.539,309.021,273.348,309.021,274.379z
		 M303.9,274.379c0,0.869,0.187,1.529,0.557,1.979c0.37,0.451,0.908,0.678,1.615,0.678c0.711,0,1.249-0.227,1.61-0.676
		c0.363-0.445,0.545-1.105,0.545-1.979c0-0.861-0.181-1.521-0.543-1.967c-0.359-0.447-0.896-0.67-1.604-0.67
		c-0.711,0-1.253,0.225-1.623,0.674S303.9,273.521,303.9,274.379z"/>
	<path fill="#444444" d="M315.305,271.175v4.157c0,0.732-0.221,1.309-0.663,1.727c-0.44,0.42-1.05,0.629-1.821,0.629
		c-0.772,0-1.372-0.211-1.796-0.633c-0.425-0.422-0.637-1.002-0.637-1.74v-4.14h0.747v4.192c0,0.535,0.146,0.947,0.438,1.234
		s0.725,0.432,1.292,0.432c0.542,0,0.959-0.145,1.253-0.434c0.292-0.289,0.438-0.703,0.438-1.242v-4.186L315.305,271.175
		L315.305,271.175z"/>
	<path fill="#444444" d="M317.006,271.175h1.814c0.854,0,1.469,0.128,1.852,0.382c0.38,0.256,0.569,0.658,0.569,1.209
		c0,0.381-0.104,0.695-0.317,0.942c-0.212,0.248-0.521,0.408-0.931,0.481v0.043c0.978,0.168,1.465,0.681,1.465,1.539
		c0,0.571-0.194,1.021-0.582,1.345c-0.39,0.321-0.933,0.483-1.628,0.483h-2.242V271.175L317.006,271.175z M317.754,273.926h1.229
		c0.525,0,0.904-0.083,1.138-0.248c0.229-0.166,0.348-0.443,0.348-0.838c0-0.359-0.129-0.619-0.388-0.779
		c-0.258-0.16-0.668-0.238-1.229-0.238h-1.098V273.926z M317.754,274.559v2.404h1.34c0.521,0,0.909-0.102,1.171-0.302
		c0.265-0.2,0.396-0.515,0.396-0.942c0-0.398-0.134-0.691-0.401-0.879c-0.269-0.188-0.677-0.281-1.225-0.281H317.754z"/>
	<path fill="#444444" d="M322.837,277.6v-6.425h0.748v5.748h2.834v0.677H322.837z"/>
	<path fill="#444444" d="M331.09,277.6h-3.582v-6.425h3.582v0.663h-2.834v2.07h2.662v0.658h-2.662v2.365h2.834V277.6z"/>
	<path fill="#444444" d="M337.643,274.326c0,1.061-0.286,1.871-0.861,2.432c-0.576,0.562-1.403,0.842-2.484,0.842h-1.78v-6.425
		h1.971c0.999,0,1.773,0.276,2.33,0.831C337.365,272.559,337.643,273.332,337.643,274.326z M336.852,274.352
		c0-0.836-0.21-1.469-0.631-1.894c-0.42-0.425-1.045-0.638-1.874-0.638h-1.085v5.133h0.909c0.891,0,1.562-0.219,2.009-0.656
		C336.627,275.857,336.852,275.211,336.852,274.352z"/>
</g>
<g>
	<rect id="menu_1_" x="166.973" y="22" opacity="0.05" enable-background="new    " width="49" height="17"/>
	<rect id="toolbar-l" opacity="0.05" enable-background="new    " width="133" height="17"/>
	<rect id="toolbar-r" x="138" opacity="0.05" enable-background="new    " width="122" height="17"/>
	<rect id="logo" x="108" y="22" opacity="0.05" enable-background="new    " width="54" height="17"/>
	<rect id="menu" y="22" opacity="0.05" enable-background="new    " width="102.875" height="17"/>
	<rect id="search" x="219.938" y="22" opacity="0.05" enable-background="new    " width="40" height="17"/>
	<g id="top-a" opacity="0.1">
		<rect y="71" fill="#777777" width="260" height="22"/>
	</g>
	<g id="top-b" opacity="0.1">
		<rect y="125" fill="#777777" width="260" height="22"/>
	</g>
	<rect id="sidebar-a__x28_left_x29_" y="152" opacity="0.2" fill="#444444" enable-background="new    " width="26" height="92"/>

		<rect id="sidebar-b__x28_left_x29_" x="31" y="152" opacity="0.2" fill="#444444" enable-background="new    " width="26" height="92"/>

		<rect id="sidebar-a__x28_right_x29_" x="234" y="152" opacity="0.2" fill="#444444" enable-background="new    " width="26" height="92"/>

		<rect id="sidebar-b__x28_right_x29_" x="203" y="152" opacity="0.2" fill="#444444" enable-background="new    " width="26" height="92"/>
	<g id="inner_top" opacity="0.1">
		<rect x="62" y="152" fill="#777777" width="136" height="20"/>
	</g>
	<rect id="content" x="62" y="177" opacity="0.05" enable-background="new    " width="136" height="42"/>
	<g id="inner_bottom" opacity="0.1">
		<rect x="62" y="224" fill="#777777" width="136" height="20"/>
	</g>
	<g id="bottom-a" opacity="0.1">
		<rect y="276" fill="#777777" width="260" height="22"/>
	</g>
	<g id="bottom-b" opacity="0.1">
		<rect y="330" fill="#777777" width="260" height="22"/>
	</g>
	<g>
		<path fill="#444444" d="M46.282,12h-0.747V6.239H43.5V5.575h4.815v0.664H46.28L46.282,12L46.282,12z"/>
		<path fill="#444444" d="M54.86,8.779c0,1.028-0.26,1.837-0.779,2.426c-0.521,0.589-1.243,0.883-2.168,0.883
			c-0.946,0-1.677-0.289-2.191-0.868c-0.514-0.578-0.771-1.395-0.771-2.45c0-1.046,0.258-1.857,0.772-2.432
			c0.516-0.576,1.248-0.864,2.197-0.864c0.923,0,1.644,0.293,2.162,0.879S54.86,7.748,54.86,8.779z M49.74,8.779
			c0,0.87,0.185,1.53,0.556,1.98c0.37,0.45,0.909,0.674,1.615,0.674c0.712,0,1.25-0.224,1.612-0.672
			c0.363-0.448,0.545-1.109,0.545-1.982c0-0.864-0.181-1.52-0.543-1.966c-0.361-0.446-0.896-0.67-1.605-0.67
			c-0.712,0-1.253,0.225-1.624,0.674C49.925,7.267,49.74,7.92,49.74,8.779z"/>
		<path fill="#444444" d="M61.869,8.779c0,1.028-0.261,1.837-0.78,2.426c-0.521,0.589-1.243,0.883-2.168,0.883
			c-0.946,0-1.676-0.289-2.191-0.868c-0.514-0.578-0.771-1.395-0.771-2.45c0-1.046,0.258-1.857,0.772-2.432
			c0.517-0.576,1.248-0.864,2.197-0.864c0.923,0,1.645,0.293,2.162,0.879C61.607,6.939,61.869,7.748,61.869,8.779z M56.75,8.779
			c0,0.87,0.185,1.53,0.556,1.98c0.37,0.45,0.909,0.674,1.615,0.674c0.712,0,1.25-0.224,1.613-0.672
			c0.362-0.448,0.545-1.109,0.545-1.982c0-0.864-0.182-1.52-0.543-1.966c-0.362-0.446-0.897-0.67-1.606-0.67
			c-0.712,0-1.253,0.225-1.624,0.674C56.935,7.267,56.75,7.92,56.75,8.779z"/>
		<path fill="#444444" d="M63.302,12V5.575h0.747v5.748h2.834V12H63.302z"/>
		<path fill="#444444" d="M67.973,5.575h1.815c0.853,0,1.469,0.127,1.85,0.382c0.381,0.255,0.571,0.658,0.571,1.208
			c0,0.381-0.106,0.695-0.319,0.942c-0.212,0.248-0.521,0.408-0.929,0.481v0.044c0.976,0.167,1.463,0.68,1.463,1.538
			c0,0.574-0.194,1.022-0.582,1.345C71.454,11.839,70.912,12,70.214,12h-2.241V5.575z M68.72,8.326h1.23
			c0.526,0,0.906-0.083,1.138-0.248c0.23-0.165,0.347-0.445,0.347-0.837c0-0.36-0.129-0.62-0.387-0.78
			c-0.258-0.16-0.668-0.24-1.23-0.24H68.72V8.326z M68.72,8.959v2.404h1.34c0.52,0,0.909-0.1,1.171-0.301
			c0.263-0.2,0.395-0.515,0.395-0.942c0-0.398-0.134-0.691-0.402-0.879S70.548,8.96,70,8.96L68.72,8.959L68.72,8.959z"/>
		<path fill="#444444" d="M77.843,12l-0.8-2.043h-2.575L73.677,12h-0.756l2.54-6.451h0.628L78.617,12H77.843z M76.811,9.284
			l-0.747-1.991c-0.097-0.252-0.195-0.561-0.299-0.927c-0.063,0.281-0.157,0.59-0.277,0.927l-0.756,1.991H76.811z"/>
		<path fill="#444444" d="M80.247,9.328V12H79.5V5.575h1.762c0.788,0,1.37,0.151,1.747,0.453c0.376,0.302,0.564,0.756,0.564,1.362
			c0,0.85-0.432,1.424-1.293,1.723L84.026,12h-0.883l-1.556-2.672H80.247z M80.247,8.687h1.023c0.527,0,0.914-0.104,1.16-0.314
			c0.247-0.209,0.37-0.523,0.37-0.942c0-0.425-0.125-0.731-0.376-0.918c-0.25-0.188-0.652-0.281-1.206-0.281h-0.971V8.687z"/>
		<path fill="#444444" d="M84.549,9.921V9.253h2.158v0.668H84.549z"/>
		<path fill="#444444" d="M87.959,12V5.575h0.747v5.748h2.834V12H87.959z"/>
	</g>
	<g>
		<path fill="#444444" d="M176.795,11.912h-0.747V6.15h-2.035V5.487h4.816V6.15h-2.035L176.795,11.912L176.795,11.912z"/>
		<path fill="#444444" d="M185.374,8.691c0,1.027-0.261,1.836-0.78,2.426c-0.52,0.588-1.243,0.883-2.168,0.883
			c-0.946,0-1.676-0.289-2.191-0.868c-0.514-0.578-0.771-1.396-0.771-2.45c0-1.045,0.258-1.856,0.772-2.432
			c0.517-0.576,1.248-0.863,2.197-0.863c0.923,0,1.645,0.293,2.162,0.879C185.112,6.852,185.374,7.66,185.374,8.691z M180.254,8.691
			c0,0.869,0.185,1.529,0.556,1.979c0.37,0.449,0.909,0.675,1.615,0.675c0.712,0,1.25-0.225,1.613-0.673
			c0.362-0.448,0.545-1.108,0.545-1.981c0-0.864-0.182-1.521-0.543-1.967c-0.362-0.447-0.897-0.67-1.606-0.67
			c-0.712,0-1.253,0.225-1.624,0.674C180.439,7.179,180.254,7.833,180.254,8.691z"/>
		<path fill="#444444" d="M192.383,8.691c0,1.027-0.26,1.836-0.78,2.426c-0.52,0.588-1.243,0.883-2.168,0.883
			c-0.946,0-1.676-0.289-2.19-0.868c-0.515-0.578-0.771-1.396-0.771-2.45c0-1.045,0.258-1.856,0.773-2.432s1.248-0.863,2.196-0.863
			c0.924,0,1.645,0.293,2.162,0.879C192.123,6.852,192.383,7.66,192.383,8.691z M187.263,8.691c0,0.869,0.185,1.529,0.556,1.979
			c0.37,0.449,0.909,0.675,1.615,0.675c0.712,0,1.25-0.225,1.613-0.673c0.363-0.448,0.545-1.108,0.545-1.981
			c0-0.864-0.181-1.521-0.543-1.967c-0.362-0.447-0.897-0.67-1.606-0.67c-0.712,0-1.253,0.225-1.624,0.674
			C187.448,7.179,187.263,7.833,187.263,8.691z"/>
		<path fill="#444444" d="M193.815,11.912V5.487h0.747v5.748h2.834v0.677H193.815z"/>
		<path fill="#444444" d="M198.487,5.487h1.815c0.853,0,1.469,0.128,1.851,0.382c0.382,0.256,0.57,0.658,0.57,1.209
			c0,0.381-0.104,0.695-0.318,0.942c-0.213,0.248-0.521,0.408-0.929,0.481v0.044c0.977,0.167,1.463,0.68,1.463,1.538
			c0,0.574-0.193,1.022-0.582,1.345c-0.389,0.322-0.931,0.483-1.628,0.483h-2.241L198.487,5.487L198.487,5.487z M199.234,8.238h1.23
			c0.527,0,0.907-0.083,1.138-0.248c0.231-0.166,0.348-0.444,0.348-0.838c0-0.359-0.13-0.62-0.388-0.779
			c-0.258-0.16-0.668-0.24-1.229-0.24h-1.1L199.234,8.238L199.234,8.238z M199.234,8.871v2.404h1.341
			c0.519,0,0.908-0.101,1.171-0.302c0.262-0.2,0.394-0.515,0.394-0.942c0-0.398-0.134-0.691-0.402-0.879
			c-0.268-0.188-0.676-0.281-1.224-0.281H199.234z"/>
		<path fill="#444444" d="M208.357,11.912l-0.801-2.043h-2.574l-0.791,2.043h-0.756l2.539-6.451h0.629l2.527,6.451H208.357z
			 M207.324,9.196l-0.747-1.991c-0.098-0.251-0.196-0.561-0.3-0.927c-0.063,0.281-0.156,0.591-0.275,0.927l-0.756,1.991H207.324z"/>
		<path fill="#444444" d="M210.761,9.24v2.672h-0.747V5.487h1.762c0.789,0,1.371,0.151,1.748,0.452
			c0.375,0.303,0.564,0.756,0.564,1.363c0,0.85-0.433,1.424-1.293,1.723l1.745,2.887h-0.885L212.1,9.24H210.761z M210.761,8.599
			h1.024c0.526,0,0.914-0.104,1.159-0.314c0.246-0.209,0.369-0.523,0.369-0.942c0-0.425-0.125-0.73-0.377-0.918
			c-0.25-0.188-0.651-0.281-1.205-0.281h-0.972L210.761,8.599L210.761,8.599z"/>
		<path fill="#444444" d="M215.062,9.834V9.166h2.158v0.668H215.062L215.062,9.834z"/>
		<path fill="#444444" d="M219.221,9.24v2.672h-0.748V5.487h1.763c0.788,0,1.37,0.151,1.747,0.452
			c0.376,0.303,0.564,0.756,0.564,1.363c0,0.85-0.431,1.424-1.292,1.723L223,11.912h-0.884L220.56,9.24H219.221z M219.221,8.599
			h1.023c0.526,0,0.914-0.104,1.159-0.314c0.246-0.209,0.369-0.523,0.369-0.942c0-0.425-0.125-0.73-0.376-0.918
			c-0.25-0.188-0.651-0.281-1.206-0.281h-0.971L219.221,8.599L219.221,8.599z"/>
	</g>
	<rect id="toolbar-l_1_" y="357" opacity="0.05" enable-background="new    " width="133" height="17"/>
	<rect id="toolbar-r_1_" x="138" y="357" opacity="0.05" enable-background="new    " width="122" height="17"/>
	<g>
		<path fill="#444444" d="M124.69,34v-6.425h0.747v5.748h2.834V34H124.69z"/>
		<path fill="#444444" d="M134.938,30.779c0,1.028-0.26,1.837-0.779,2.426c-0.521,0.589-1.243,0.883-2.168,0.883
			c-0.946,0-1.677-0.289-2.191-0.868c-0.514-0.578-0.771-1.395-0.771-2.45c0-1.046,0.259-1.857,0.773-2.432
			c0.516-0.576,1.248-0.864,2.197-0.864c0.923,0,1.644,0.293,2.162,0.879C134.678,28.939,134.938,29.748,134.938,30.779z
			 M129.819,30.779c0,0.87,0.186,1.53,0.557,1.98c0.37,0.45,0.909,0.674,1.615,0.674c0.712,0,1.25-0.224,1.612-0.672
			c0.363-0.448,0.545-1.109,0.545-1.982c0-0.864-0.181-1.52-0.543-1.966c-0.361-0.446-0.896-0.67-1.605-0.67
			c-0.712,0-1.253,0.225-1.624,0.674C130.004,29.267,129.819,29.92,129.819,30.779z"/>
		<path fill="#444444" d="M139.197,30.634h2.185v3.125c-0.34,0.108-0.687,0.19-1.037,0.246c-0.351,0.056-0.759,0.083-1.222,0.083
			c-0.974,0-1.73-0.289-2.272-0.868c-0.542-0.578-0.812-1.389-0.812-2.432c0-0.668,0.134-1.253,0.401-1.755
			c0.27-0.502,0.654-0.886,1.158-1.151c0.504-0.265,1.094-0.398,1.771-0.398c0.686,0,1.323,0.126,1.916,0.378l-0.29,0.659
			c-0.58-0.246-1.139-0.369-1.675-0.369c-0.781,0-1.393,0.233-1.833,0.699c-0.439,0.466-0.658,1.112-0.658,1.938
			c0,0.867,0.211,1.525,0.635,1.973c0.423,0.448,1.045,0.672,1.865,0.672c0.444,0,0.88-0.051,1.305-0.154v-1.979h-1.438
			L139.197,30.634L139.197,30.634z"/>
		<path fill="#444444" d="M148.5,30.779c0,1.028-0.26,1.837-0.78,2.426s-1.243,0.883-2.168,0.883c-0.946,0-1.676-0.289-2.191-0.868
			c-0.514-0.578-0.771-1.395-0.771-2.45c0-1.046,0.258-1.857,0.772-2.432c0.517-0.576,1.248-0.864,2.197-0.864
			c0.923,0,1.645,0.293,2.162,0.879C148.24,28.939,148.5,29.748,148.5,30.779z M143.38,30.779c0,0.87,0.185,1.53,0.556,1.98
			c0.37,0.45,0.909,0.674,1.615,0.674c0.712,0,1.25-0.224,1.613-0.672c0.362-0.448,0.545-1.109,0.545-1.982
			c0-0.864-0.182-1.52-0.543-1.966c-0.362-0.446-0.897-0.67-1.606-0.67c-0.712,0-1.253,0.225-1.624,0.674
			C143.565,29.267,143.38,29.92,143.38,30.779z"/>
	</g>
	<g>
		<path fill="#444444" d="M41.896,34l-2.18-5.695h-0.035c0.041,0.451,0.062,0.987,0.062,1.608V34h-0.689v-6.425h1.125l2.035,5.3
			h0.034l2.053-5.3h1.115V34H44.67v-4.14c0-0.475,0.021-0.99,0.062-1.547h-0.035L42.497,34H41.896z"/>
		<path fill="#444444" d="M50.76,34h-3.582v-6.425h3.582v0.664h-2.834v2.07h2.663v0.659h-2.663v2.364h2.834V34z"/>
		<path fill="#444444" d="M57.202,34h-0.854l-3.51-5.392h-0.035c0.047,0.633,0.069,1.213,0.069,1.74V34h-0.689v-6.425h0.844
			l3.501,5.37h0.035c-0.006-0.079-0.018-0.333-0.039-0.763c-0.021-0.429-0.029-0.736-0.021-0.92v-3.687H57.2L57.202,34L57.202,34z"
			/>
		<path fill="#444444" d="M63.821,27.575v4.157c0,0.732-0.221,1.308-0.664,1.727s-1.051,0.628-1.824,0.628s-1.371-0.211-1.795-0.633
			s-0.635-1.002-0.635-1.74v-4.14h0.746v4.192c0,0.536,0.146,0.948,0.439,1.235c0.293,0.287,0.725,0.431,1.293,0.431
			c0.541,0,0.959-0.144,1.252-0.433c0.293-0.288,0.438-0.702,0.438-1.241v-4.184L63.821,27.575L63.821,27.575z"/>
	</g>
	<g>
		<path fill="#444444" d="M181.896,34l-2.18-5.695h-0.035c0.041,0.451,0.062,0.987,0.062,1.608V34h-0.689v-6.425h1.125l2.035,5.3
			h0.034l2.053-5.3h1.115V34h-0.746v-4.14c0-0.475,0.021-0.99,0.062-1.547h-0.035l-2.2,5.687H181.896z"/>
		<path fill="#444444" d="M190.76,34h-3.582v-6.425h3.582v0.664h-2.834v2.07h2.663v0.659h-2.663v2.364h2.834V34z"/>
		<path fill="#444444" d="M197.202,34h-0.854l-3.51-5.392h-0.035c0.047,0.633,0.069,1.213,0.069,1.74V34h-0.689v-6.425h0.844
			l3.501,5.37h0.035c-0.006-0.079-0.018-0.333-0.039-0.763c-0.021-0.429-0.029-0.736-0.021-0.92v-3.687h0.697L197.202,34L197.202,34
			z"/>
		<path fill="#444444" d="M203.821,27.575v4.157c0,0.732-0.221,1.308-0.664,1.727s-1.051,0.628-1.824,0.628
			s-1.371-0.211-1.795-0.633s-0.635-1.002-0.635-1.74v-4.14h0.746v4.192c0,0.536,0.146,0.948,0.439,1.235
			c0.293,0.287,0.725,0.431,1.293,0.431c0.541,0,0.959-0.144,1.252-0.433c0.293-0.288,0.438-0.702,0.438-1.241v-4.184
			L203.821,27.575L203.821,27.575z"/>
	</g>
	<g>
		<path fill="#444444" d="M227.893,32.291c0,0.565-0.205,1.006-0.615,1.323c-0.41,0.317-0.967,0.475-1.67,0.475
			c-0.763,0-1.349-0.098-1.759-0.294v-0.721c0.265,0.111,0.552,0.199,0.861,0.264c0.311,0.065,0.618,0.097,0.923,0.097
			c0.498,0,0.873-0.094,1.125-0.284c0.252-0.188,0.378-0.452,0.378-0.789c0-0.223-0.045-0.405-0.134-0.547
			c-0.09-0.142-0.239-0.273-0.448-0.393c-0.21-0.12-0.527-0.256-0.956-0.409c-0.598-0.214-1.024-0.467-1.28-0.76
			c-0.256-0.293-0.384-0.675-0.384-1.147c0-0.495,0.186-0.889,0.558-1.182c0.372-0.293,0.864-0.439,1.477-0.439
			c0.64,0,1.227,0.117,1.763,0.352l-0.233,0.65c-0.53-0.223-1.046-0.334-1.547-0.334c-0.396,0-0.705,0.085-0.927,0.255
			c-0.223,0.17-0.334,0.406-0.334,0.708c0,0.223,0.041,0.405,0.123,0.547c0.082,0.143,0.22,0.272,0.416,0.392
			c0.193,0.118,0.492,0.25,0.894,0.393c0.674,0.24,1.137,0.498,1.391,0.773C227.765,31.494,227.893,31.851,227.893,32.291z"/>
		<path fill="#444444" d="M232.788,34h-3.582v-6.425h3.582v0.664h-2.834v2.07h2.663v0.659h-2.663v2.364h2.834V34z"/>
		<path fill="#444444" d="M238.25,34l-0.8-2.043h-2.575L234.084,34h-0.756l2.54-6.451h0.628L239.025,34H238.25z M237.217,31.284
			l-0.747-1.991c-0.097-0.252-0.195-0.561-0.299-0.927c-0.063,0.281-0.157,0.59-0.276,0.927l-0.757,1.991H237.217z"/>
		<path fill="#444444" d="M240.655,31.328V34h-0.747v-6.425h1.762c0.788,0,1.37,0.151,1.747,0.453
			c0.376,0.302,0.564,0.756,0.564,1.362c0,0.85-0.432,1.424-1.292,1.723L244.434,34h-0.884l-1.556-2.672H240.655z M240.655,30.687
			h1.023c0.527,0,0.914-0.104,1.16-0.314c0.246-0.209,0.369-0.523,0.369-0.942c0-0.425-0.125-0.731-0.376-0.918
			c-0.25-0.188-0.652-0.281-1.206-0.281h-0.971L240.655,30.687L240.655,30.687z"/>
		<path fill="#444444" d="M248.221,28.151c-0.706,0-1.264,0.235-1.672,0.706c-0.407,0.47-0.612,1.114-0.612,1.931
			c0,0.841,0.196,1.491,0.591,1.949c0.394,0.459,0.956,0.688,1.685,0.688c0.448,0,0.959-0.081,1.535-0.242v0.655
			c-0.445,0.167-0.996,0.25-1.647,0.25c-0.946,0-1.677-0.287-2.191-0.861c-0.514-0.574-0.771-1.39-0.771-2.448
			c0-0.662,0.124-1.242,0.372-1.74c0.247-0.498,0.604-0.882,1.073-1.151c0.467-0.27,1.016-0.404,1.649-0.404
			c0.674,0,1.263,0.123,1.767,0.369l-0.315,0.642C249.195,28.265,248.708,28.151,248.221,28.151z"/>
		<path fill="#444444" d="M256.027,34h-0.747v-3.023h-3.384V34h-0.747v-6.425h0.747v2.733h3.384v-2.733h0.747V34z"/>
	</g>
	<g>
		<path fill="#444444" d="M122.363,85h-0.746v-5.761h-2.035v-0.664h4.815v0.664h-2.035L122.363,85L122.363,85z"/>
		<path fill="#444444" d="M130.941,81.779c0,1.028-0.26,1.837-0.779,2.426c-0.521,0.589-1.243,0.883-2.168,0.883
			c-0.946,0-1.677-0.289-2.191-0.868c-0.514-0.578-0.771-1.395-0.771-2.45c0-1.046,0.259-1.857,0.773-2.432
			c0.516-0.576,1.248-0.864,2.197-0.864c0.923,0,1.644,0.293,2.162,0.879C130.681,79.939,130.941,80.748,130.941,81.779z
			 M125.821,81.779c0,0.87,0.186,1.53,0.557,1.98c0.37,0.45,0.909,0.674,1.615,0.674c0.712,0,1.25-0.224,1.612-0.672
			c0.363-0.448,0.545-1.109,0.545-1.982c0-0.864-0.181-1.52-0.543-1.966c-0.361-0.446-0.896-0.67-1.605-0.67
			c-0.712,0-1.253,0.225-1.624,0.674C126.006,80.267,125.821,80.92,125.821,81.779z"/>
		<path fill="#444444" d="M136.447,80.447c0,0.65-0.222,1.151-0.666,1.501c-0.442,0.35-1.078,0.525-1.904,0.525h-0.756V85h-0.747
			v-6.425h1.666C135.645,78.575,136.447,79.199,136.447,80.447z M133.121,81.832h0.672c0.662,0,1.141-0.107,1.437-0.321
			c0.296-0.214,0.444-0.557,0.444-1.028c0-0.425-0.139-0.741-0.417-0.949c-0.278-0.208-0.712-0.312-1.301-0.312h-0.835V81.832
			L133.121,81.832z"/>
		<path fill="#444444" d="M137.278,82.921v-0.668h2.158v0.668H137.278z"/>
		<path fill="#444444" d="M144.727,85l-0.8-2.043h-2.575L140.561,85h-0.756l2.54-6.451h0.628L145.5,85H144.727z M143.694,82.284
			l-0.747-1.991c-0.097-0.252-0.195-0.561-0.299-0.927c-0.063,0.281-0.156,0.59-0.276,0.927l-0.756,1.991H143.694z"/>
	</g>
	<g id="top-a_1_" opacity="0.1">
		<rect y="44" fill="#777777" width="260" height="22"/>
	</g>
	<g id="top-a_2_" opacity="0.1">
		<rect y="98" fill="#777777" width="260" height="22"/>
	</g>
	<g id="top-a_3_" opacity="0.1">
		<rect y="249" fill="#777777" width="260" height="22"/>
	</g>
	<g id="top-a_4_" opacity="0.1">
		<rect y="303" fill="#777777" width="260" height="22"/>
	</g>
	<g>
		<path fill="#444444" d="M122.294,140h-0.747v-5.761h-2.035v-0.664h4.816v0.664h-2.035L122.294,140L122.294,140z"/>
		<path fill="#444444" d="M130.873,136.779c0,1.028-0.261,1.837-0.78,2.426c-0.521,0.589-1.243,0.883-2.168,0.883
			c-0.946,0-1.676-0.289-2.191-0.868c-0.514-0.578-0.771-1.395-0.771-2.45c0-1.046,0.258-1.857,0.772-2.432
			c0.517-0.576,1.248-0.864,2.197-0.864c0.923,0,1.645,0.293,2.162,0.879C130.611,134.939,130.873,135.748,130.873,136.779z
			 M125.753,136.779c0,0.87,0.185,1.53,0.556,1.98c0.37,0.45,0.909,0.674,1.615,0.674c0.712,0,1.25-0.224,1.613-0.672
			c0.362-0.448,0.545-1.109,0.545-1.982c0-0.864-0.182-1.52-0.543-1.966c-0.362-0.446-0.897-0.67-1.606-0.67
			c-0.712,0-1.253,0.225-1.624,0.674C125.938,135.267,125.753,135.92,125.753,136.779z"/>
		<path fill="#444444" d="M136.379,135.447c0,0.65-0.222,1.151-0.666,1.501c-0.443,0.35-1.079,0.525-1.905,0.525h-0.756V140h-0.747
			v-6.425h1.666C135.576,133.575,136.379,134.199,136.379,135.447z M133.052,136.832h0.672c0.662,0,1.142-0.107,1.438-0.321
			c0.296-0.214,0.443-0.557,0.443-1.028c0-0.425-0.139-0.741-0.417-0.949c-0.277-0.208-0.712-0.312-1.301-0.312h-0.835V136.832
			L133.052,136.832z"/>
		<path fill="#444444" d="M137.209,137.921v-0.668h2.158v0.668H137.209z"/>
		<path fill="#444444" d="M140.62,133.575h1.814c0.854,0,1.469,0.127,1.851,0.382c0.381,0.255,0.57,0.658,0.57,1.208
			c0,0.381-0.105,0.695-0.318,0.942c-0.212,0.248-0.522,0.408-0.93,0.481v0.044c0.977,0.167,1.463,0.68,1.463,1.538
			c0,0.574-0.193,1.022-0.582,1.345c-0.389,0.322-0.931,0.483-1.628,0.483h-2.24V133.575z M141.367,136.326h1.229
			c0.527,0,0.907-0.083,1.138-0.248s0.348-0.445,0.348-0.837c0-0.36-0.129-0.62-0.388-0.78c-0.258-0.16-0.668-0.24-1.229-0.24
			h-1.099L141.367,136.326L141.367,136.326z M141.367,136.959v2.404h1.34c0.519,0,0.909-0.1,1.171-0.301
			c0.262-0.2,0.394-0.515,0.394-0.942c0-0.398-0.134-0.691-0.401-0.879c-0.269-0.188-0.677-0.281-1.225-0.281L141.367,136.959
			L141.367,136.959z"/>
	</g>
	<g>
		<path fill="#444444" d="M114.585,195.562c-0.706,0-1.264,0.23-1.672,0.707c-0.408,0.469-0.613,1.108-0.613,1.931
			c0,0.841,0.197,1.491,0.591,1.948c0.395,0.459,0.956,0.688,1.686,0.688c0.447,0,0.959-0.081,1.533-0.24v0.653
			c-0.444,0.167-0.994,0.25-1.647,0.25c-0.946,0-1.676-0.287-2.191-0.86c-0.514-0.574-0.771-1.391-0.771-2.447
			c0-0.662,0.124-1.238,0.372-1.736c0.247-0.498,0.604-0.887,1.071-1.15c0.468-0.271,1.018-0.4,1.65-0.4
			c0.674,0,1.263,0.123,1.767,0.369l-0.315,0.643C115.558,195.678,115.071,195.562,114.585,195.562z"/>
		<path fill="#444444" d="M123.088,198.191c0,1.022-0.26,1.836-0.78,2.426c-0.52,0.589-1.243,0.883-2.168,0.883
			c-0.946,0-1.676-0.289-2.19-0.867c-0.514-0.578-0.771-1.396-0.771-2.451c0-1.045,0.258-1.854,0.773-2.432
			c0.516-0.576,1.248-0.863,2.196-0.863c0.923,0,1.645,0.293,2.162,0.879C122.828,196.352,123.088,197.16,123.088,198.191z
			 M117.969,198.191c0,0.869,0.185,1.527,0.556,1.979c0.37,0.45,0.909,0.676,1.615,0.676c0.712,0,1.25-0.226,1.613-0.674
			c0.363-0.447,0.545-1.107,0.545-1.98c0-0.86-0.181-1.521-0.543-1.967c-0.362-0.443-0.897-0.67-1.606-0.67
			c-0.712,0-1.253,0.229-1.624,0.674C118.154,196.68,117.969,197.332,117.969,198.191z"/>
		<path fill="#444444" d="M129.54,201.412h-0.854l-3.511-5.393h-0.035c0.047,0.633,0.07,1.213,0.07,1.735v3.652h-0.69v-6.429h0.844
			l3.503,5.369h0.034c-0.006-0.078-0.019-0.334-0.04-0.764s-0.027-0.736-0.021-0.92v-3.688h0.699L129.54,201.412L129.54,201.412z"/>
		<path fill="#444444" d="M133.284,201.412h-0.747v-5.762h-2.035v-0.664h4.815v0.664h-2.034L133.284,201.412L133.284,201.412z"/>
		<path fill="#444444" d="M139.867,201.412h-3.582v-6.426h3.582v0.664h-2.834v2.07h2.662v0.654h-2.662v2.364h2.834V201.412z"/>
		<path fill="#444444" d="M146.309,201.412h-0.853l-3.512-5.393h-0.034c0.047,0.633,0.069,1.213,0.069,1.735v3.652h-0.689v-6.429
			h0.844l3.502,5.369h0.035c-0.006-0.078-0.02-0.334-0.04-0.764c-0.021-0.43-0.028-0.736-0.022-0.92v-3.688h0.699L146.309,201.412
			L146.309,201.412z"/>
		<path fill="#444444" d="M150.053,201.412h-0.747v-5.762h-2.035v-0.664h4.817v0.664h-2.035V201.412z"/>
	</g>
	<g>
		<path fill="#444444" d="M107.791,338.575h1.814c0.854,0,1.47,0.128,1.851,0.382c0.381,0.256,0.57,0.658,0.57,1.209
			c0,0.381-0.105,0.695-0.318,0.941c-0.212,0.248-0.522,0.408-0.93,0.479v0.044c0.977,0.167,1.464,0.683,1.464,1.538
			c0,0.574-0.194,1.021-0.582,1.348c-0.39,0.319-0.932,0.48-1.628,0.48h-2.241V338.575z M108.538,341.326h1.229
			c0.527,0,0.907-0.082,1.138-0.248c0.231-0.166,0.348-0.445,0.348-0.838c0-0.359-0.129-0.619-0.387-0.779
			c-0.259-0.16-0.668-0.24-1.23-0.24h-1.099L108.538,341.326L108.538,341.326z M108.538,341.959v2.404h1.34
			c0.519,0,0.909-0.104,1.171-0.303c0.262-0.199,0.394-0.52,0.394-0.941c0-0.398-0.134-0.691-0.401-0.879
			c-0.269-0.188-0.677-0.281-1.225-0.281H108.538L108.538,341.959z"/>
		<path fill="#444444" d="M119.199,341.779c0,1.027-0.261,1.836-0.78,2.426c-0.521,0.588-1.243,0.883-2.168,0.883
			c-0.946,0-1.676-0.289-2.191-0.868c-0.514-0.577-0.771-1.396-0.771-2.45c0-1.045,0.258-1.854,0.772-2.432
			c0.517-0.576,1.248-0.863,2.197-0.863c0.923,0,1.644,0.293,2.162,0.879C118.939,339.939,119.199,340.748,119.199,341.779z
			 M114.079,341.779c0,0.869,0.185,1.529,0.556,1.979c0.37,0.45,0.909,0.676,1.615,0.676c0.712,0,1.25-0.226,1.612-0.674
			c0.363-0.447,0.546-1.107,0.546-1.98c0-0.86-0.182-1.521-0.543-1.967c-0.362-0.442-0.897-0.67-1.606-0.67
			c-0.712,0-1.253,0.229-1.624,0.674C114.264,340.268,114.079,340.92,114.079,341.779z"/>
		<path fill="#444444" d="M122.609,345h-0.747v-5.762h-2.034v-0.663h4.815v0.663h-2.035L122.609,345L122.609,345z"/>
		<path fill="#444444" d="M127.588,345h-0.747v-5.762h-2.035v-0.663h4.816v0.663h-2.035L127.588,345L127.588,345z"/>
		<path fill="#444444" d="M136.166,341.779c0,1.027-0.261,1.836-0.78,2.426c-0.52,0.588-1.243,0.883-2.168,0.883
			c-0.946,0-1.676-0.289-2.191-0.868c-0.514-0.577-0.771-1.396-0.771-2.45c0-1.045,0.258-1.854,0.772-2.432
			c0.517-0.576,1.248-0.863,2.197-0.863c0.923,0,1.645,0.293,2.162,0.879C135.906,339.939,136.166,340.748,136.166,341.779z
			 M131.046,341.779c0,0.869,0.185,1.529,0.556,1.979c0.37,0.45,0.909,0.676,1.615,0.676c0.712,0,1.25-0.226,1.613-0.674
			c0.362-0.447,0.545-1.107,0.545-1.98c0-0.86-0.182-1.521-0.543-1.967c-0.362-0.442-0.897-0.67-1.606-0.67
			c-0.712,0-1.253,0.229-1.624,0.674C131.231,340.268,131.046,340.92,131.046,341.779z"/>
		<path fill="#444444" d="M140.442,345l-2.18-5.695h-0.035c0.041,0.451,0.062,0.987,0.062,1.608V345h-0.69v-6.425h1.125l2.035,5.3
			h0.035l2.052-5.3h1.116V345h-0.747v-4.141c0-0.479,0.021-0.989,0.062-1.547h-0.034L141.044,345H140.442z"/>
		<path fill="#444444" d="M145.21,342.922v-0.668h2.158v0.668H145.21z"/>
		<path fill="#444444" d="M148.62,338.575h1.814c0.854,0,1.469,0.128,1.851,0.382c0.381,0.256,0.57,0.658,0.57,1.209
			c0,0.381-0.105,0.695-0.318,0.941c-0.212,0.248-0.522,0.408-0.93,0.479v0.044c0.977,0.167,1.463,0.683,1.463,1.538
			c0,0.574-0.193,1.021-0.582,1.348c-0.389,0.319-0.931,0.48-1.628,0.48h-2.24V338.575z M149.367,341.326h1.229
			c0.527,0,0.907-0.082,1.138-0.248s0.348-0.445,0.348-0.838c0-0.359-0.129-0.619-0.388-0.779c-0.258-0.16-0.668-0.24-1.229-0.24
			h-1.099L149.367,341.326L149.367,341.326z M149.367,341.959v2.404h1.34c0.519,0,0.909-0.104,1.171-0.303
			c0.262-0.199,0.394-0.52,0.394-0.941c0-0.398-0.134-0.691-0.401-0.879c-0.269-0.188-0.677-0.281-1.225-0.281H149.367
			L149.367,341.959z"/>
	</g>
	<g>
		<path fill="#444444" d="M107.858,284.575h1.815c0.853,0,1.469,0.128,1.85,0.382c0.381,0.256,0.571,0.658,0.571,1.209
			c0,0.381-0.106,0.695-0.319,0.941c-0.212,0.248-0.521,0.408-0.929,0.479v0.044c0.976,0.167,1.463,0.683,1.463,1.538
			c0,0.574-0.193,1.021-0.582,1.348c-0.389,0.319-0.931,0.48-1.628,0.48h-2.241V284.575z M108.605,287.326h1.23
			c0.526,0,0.907-0.082,1.138-0.248s0.347-0.445,0.347-0.838c0-0.359-0.129-0.619-0.387-0.779c-0.258-0.16-0.668-0.24-1.229-0.24
			h-1.1L108.605,287.326L108.605,287.326z M108.605,287.959v2.404h1.34c0.52,0,0.909-0.104,1.172-0.303
			c0.262-0.199,0.394-0.52,0.394-0.941c0-0.398-0.134-0.691-0.402-0.879c-0.268-0.188-0.676-0.281-1.224-0.281H108.605
			L108.605,287.959z"/>
		<path fill="#444444" d="M119.267,287.779c0,1.027-0.26,1.836-0.78,2.426c-0.52,0.588-1.242,0.883-2.168,0.883
			c-0.945,0-1.676-0.289-2.19-0.867c-0.514-0.578-0.771-1.396-0.771-2.451c0-1.045,0.259-1.854,0.773-2.432
			c0.516-0.576,1.248-0.863,2.197-0.863c0.923,0,1.644,0.293,2.161,0.879C119.007,285.939,119.267,286.748,119.267,287.779z
			 M114.147,287.779c0,0.869,0.186,1.529,0.557,1.979c0.37,0.45,0.908,0.676,1.614,0.676c0.712,0,1.25-0.226,1.613-0.674
			c0.363-0.447,0.545-1.107,0.545-1.979c0-0.865-0.181-1.521-0.543-1.969c-0.362-0.445-0.896-0.67-1.605-0.67
			c-0.712,0-1.253,0.227-1.624,0.674C114.332,286.268,114.147,286.92,114.147,287.779z"/>
		<path fill="#444444" d="M122.677,291h-0.747v-5.762h-2.035v-0.663h4.816v0.663h-2.035L122.677,291L122.677,291z"/>
		<path fill="#444444" d="M127.656,291h-0.746v-5.762h-2.035v-0.663h4.815v0.663h-2.035L127.656,291L127.656,291z"/>
		<path fill="#444444" d="M136.234,287.779c0,1.027-0.26,1.836-0.779,2.426c-0.521,0.588-1.243,0.883-2.168,0.883
			c-0.946,0-1.677-0.289-2.191-0.867c-0.514-0.578-0.771-1.396-0.771-2.451c0-1.045,0.258-1.854,0.772-2.432
			c0.516-0.576,1.248-0.863,2.197-0.863c0.923,0,1.644,0.293,2.162,0.879S136.234,286.748,136.234,287.779z M131.114,287.779
			c0,0.869,0.186,1.529,0.557,1.979c0.37,0.45,0.909,0.676,1.615,0.676c0.712,0,1.25-0.226,1.612-0.674
			c0.363-0.447,0.545-1.107,0.545-1.979c0-0.865-0.181-1.521-0.543-1.969c-0.361-0.445-0.896-0.67-1.605-0.67
			c-0.712,0-1.253,0.227-1.624,0.674C131.299,286.268,131.114,286.92,131.114,287.779z"/>
		<path fill="#444444" d="M140.51,291l-2.18-5.695h-0.035c0.041,0.451,0.062,0.987,0.062,1.608V291h-0.689v-6.425h1.125l2.035,5.3
			h0.034l2.053-5.3h1.115V291h-0.746v-4.141c0-0.479,0.021-0.989,0.062-1.547h-0.035L141.112,291H140.51z"/>
		<path fill="#444444" d="M145.278,288.922v-0.668h2.158v0.668H145.278z"/>
		<path fill="#444444" d="M152.727,291l-0.8-2.043h-2.575L148.561,291h-0.756l2.54-6.451h0.628L153.5,291H152.727z M151.694,288.284
			l-0.747-1.991c-0.097-0.252-0.195-0.561-0.299-0.927c-0.063,0.28-0.156,0.591-0.276,0.927l-0.756,1.991H151.694z"/>
	</g>
	<g>
		<path fill="#444444" d="M84.549,366.921v-0.668h2.158v0.668H84.549z"/>
		<path fill="#444444" d="M87.959,369v-6.425h0.747v5.748h2.834V369H87.959z"/>
		<path fill="#444444" d="M51.599,369.007h-0.747v-6.425h3.582v0.663H51.6v2.353h2.663v0.663H51.6L51.599,369.007L51.599,369.007z"
			/>
		<path fill="#444444" d="M61.073,365.786c0,1.026-0.26,1.836-0.779,2.426c-0.521,0.588-1.243,0.884-2.168,0.884
			c-0.946,0-1.677-0.289-2.191-0.869c-0.514-0.576-0.771-1.396-0.771-2.449c0-1.045,0.258-1.854,0.772-2.433
			c0.517-0.575,1.248-0.862,2.197-0.862c0.923,0,1.644,0.293,2.162,0.879C60.813,363.945,61.073,364.755,61.073,365.786z
			 M55.954,365.786c0,0.868,0.185,1.528,0.556,1.979c0.37,0.449,0.909,0.676,1.615,0.676c0.712,0,1.25-0.227,1.612-0.674
			c0.363-0.447,0.545-1.107,0.545-1.98c0-0.861-0.181-1.521-0.543-1.967c-0.361-0.443-0.896-0.67-1.605-0.67
			c-0.712,0-1.253,0.229-1.624,0.674C56.139,364.273,55.954,364.927,55.954,365.786z"/>
		<path fill="#444444" d="M68.083,365.786c0,1.026-0.261,1.836-0.78,2.426c-0.521,0.588-1.243,0.884-2.168,0.884
			c-0.946,0-1.676-0.289-2.191-0.869c-0.514-0.576-0.771-1.396-0.771-2.449c0-1.045,0.258-1.854,0.772-2.433
			c0.517-0.575,1.248-0.862,2.197-0.862c0.923,0,1.645,0.293,2.162,0.879C67.821,363.947,68.083,364.755,68.083,365.786z
			 M62.963,365.786c0,0.868,0.185,1.528,0.556,1.979c0.37,0.449,0.909,0.676,1.615,0.676c0.712,0,1.25-0.227,1.613-0.674
			c0.362-0.447,0.545-1.107,0.545-1.98c0-0.861-0.182-1.521-0.543-1.967c-0.362-0.443-0.897-0.67-1.606-0.67
			c-0.712,0-1.253,0.229-1.624,0.674C63.148,364.273,62.963,364.927,62.963,365.786z"/>
		<path fill="#444444" d="M71.493,369.007h-0.747v-5.762h-2.035v-0.663h4.815v0.663h-2.035v5.762H71.493z"/>
		<path fill="#444444" d="M78.076,369.007h-3.582v-6.425h3.582v0.663h-2.835v2.069h2.663v0.654h-2.663v2.364h2.835V369.007z"/>
		<path fill="#444444" d="M80.247,366.335v2.672H79.5v-6.425h1.762c0.788,0,1.37,0.15,1.747,0.452
			c0.376,0.303,0.563,0.756,0.563,1.362c0,0.851-0.431,1.424-1.292,1.724l1.745,2.887h-0.883l-1.556-2.672H80.247z M80.247,365.693
			h1.023c0.527,0,0.914-0.104,1.16-0.312c0.246-0.209,0.369-0.521,0.369-0.938c0-0.428-0.125-0.729-0.376-0.918
			c-0.25-0.188-0.652-0.279-1.206-0.279h-0.971L80.247,365.693L80.247,365.693z"/>
	</g>
	<g>
		<path fill="#444444" d="M215.062,366.834v-0.668h2.158v0.668H215.062z"/>
		<path fill="#444444" d="M219.221,366.24v2.672h-0.748v-6.426h1.763c0.788,0,1.37,0.152,1.747,0.453
			c0.376,0.303,0.564,0.756,0.564,1.361c0,0.852-0.431,1.426-1.292,1.725l1.745,2.887h-0.884l-1.557-2.672H219.221z M219.221,365.6
			h1.023c0.526,0,0.914-0.104,1.159-0.313c0.246-0.209,0.369-0.522,0.369-0.942c0-0.425-0.125-0.729-0.376-0.918
			c-0.25-0.188-0.651-0.279-1.206-0.279h-0.971L219.221,365.6L219.221,365.6z"/>
		<path fill="#444444" d="M182.114,368.904h-0.747v-6.424h3.582v0.662h-2.834v2.353h2.663v0.664h-2.663L182.114,368.904
			L182.114,368.904z"/>
		<path fill="#444444" d="M191.587,365.686c0,1.026-0.26,1.836-0.779,2.426c-0.521,0.588-1.243,0.883-2.168,0.883
			c-0.946,0-1.677-0.289-2.191-0.868c-0.514-0.577-0.771-1.396-0.771-2.45c0-1.045,0.258-1.854,0.772-2.432
			c0.517-0.576,1.248-0.863,2.197-0.863c0.923,0,1.644,0.293,2.162,0.879S191.587,364.652,191.587,365.686z M186.469,365.686
			c0,0.869,0.185,1.528,0.556,1.979c0.37,0.45,0.909,0.676,1.615,0.676c0.712,0,1.25-0.227,1.612-0.674
			c0.363-0.447,0.545-1.107,0.545-1.98c0-0.86-0.181-1.521-0.543-1.967c-0.361-0.443-0.896-0.67-1.605-0.67
			c-0.712,0-1.253,0.229-1.624,0.674C186.654,364.173,186.469,364.825,186.469,365.686z"/>
		<path fill="#444444" d="M198.598,365.686c0,1.026-0.261,1.836-0.78,2.426c-0.521,0.588-1.243,0.883-2.168,0.883
			c-0.946,0-1.676-0.289-2.191-0.868c-0.514-0.577-0.771-1.396-0.771-2.45c0-1.045,0.258-1.854,0.772-2.432
			c0.517-0.576,1.248-0.863,2.197-0.863c0.923,0,1.645,0.293,2.162,0.879C198.336,363.846,198.598,364.652,198.598,365.686z
			 M193.478,365.686c0,0.869,0.185,1.528,0.556,1.979c0.37,0.45,0.909,0.676,1.615,0.676c0.712,0,1.25-0.227,1.613-0.674
			c0.362-0.447,0.545-1.107,0.545-1.98c0-0.86-0.182-1.521-0.543-1.967c-0.362-0.443-0.897-0.67-1.606-0.67
			c-0.712,0-1.253,0.229-1.624,0.674C193.662,364.173,193.478,364.825,193.478,365.686z"/>
		<path fill="#444444" d="M202.008,368.904h-0.747v-5.762h-2.035v-0.662h4.815v0.662h-2.035v5.762H202.008z"/>
		<path fill="#444444" d="M208.591,368.904h-3.582v-6.424h3.582v0.662h-2.835v2.07h2.663v0.654h-2.663v2.363h2.835V368.904z"/>
		<path fill="#444444" d="M210.762,366.232v2.672h-0.747v-6.424h1.762c0.788,0,1.37,0.15,1.747,0.451
			c0.376,0.303,0.563,0.756,0.563,1.363c0,0.85-0.431,1.424-1.292,1.723l1.745,2.887h-0.883l-1.556-2.672H210.762z M210.762,365.593
			h1.023c0.527,0,0.914-0.104,1.16-0.312c0.246-0.209,0.369-0.521,0.369-0.938c0-0.429-0.125-0.729-0.376-0.918
			c-0.25-0.188-0.652-0.28-1.206-0.28h-0.971L210.762,365.593L210.762,365.593z"/>
	</g>
	<g>
		<path fill="#444444" d="M14.703,216.457c0.564,0,1.006,0.205,1.322,0.615c0.317,0.41,0.475,0.967,0.475,1.67
			c0,0.762-0.099,1.348-0.294,1.758h-0.722c0.111-0.264,0.199-0.551,0.265-0.861c0.064-0.31,0.097-0.617,0.097-0.923
			c0-0.498-0.094-0.873-0.284-1.125c-0.188-0.252-0.452-0.378-0.789-0.378c-0.223,0-0.404,0.045-0.547,0.135
			c-0.142,0.09-0.272,0.238-0.393,0.447c-0.12,0.21-0.256,0.528-0.409,0.956c-0.214,0.599-0.467,1.024-0.76,1.281
			c-0.293,0.256-0.676,0.384-1.147,0.384c-0.495,0-0.889-0.186-1.182-0.559c-0.293-0.371-0.439-0.863-0.439-1.479
			c0-0.64,0.117-1.229,0.353-1.762l0.649,0.229c-0.223,0.529-0.334,1.047-0.334,1.547c0,0.396,0.085,0.705,0.255,0.932
			c0.17,0.222,0.406,0.334,0.708,0.334c0.224,0,0.405-0.041,0.548-0.123c0.143-0.082,0.271-0.225,0.392-0.416
			c0.118-0.194,0.25-0.493,0.393-0.896c0.24-0.676,0.498-1.139,0.773-1.393C13.906,216.584,14.263,216.457,14.703,216.457z"/>
		<path fill="#444444" d="M16.412,215.143H9.987v-0.746h6.426L16.412,215.143L16.412,215.143z"/>
		<path fill="#444444" d="M13.138,207.505c1.062,0,1.872,0.288,2.432,0.863c0.562,0.575,0.843,1.403,0.843,2.485v1.774H9.987v-1.969
			c0-0.999,0.277-1.771,0.831-2.329C11.372,207.781,12.145,207.505,13.138,207.505z M13.165,208.296c-0.838,0-1.47,0.21-1.895,0.631
			s-0.637,1.046-0.637,1.874v1.086h5.133v-0.91c0-0.892-0.219-1.561-0.657-2.009C14.672,208.52,14.023,208.296,13.165,208.296z"/>
		<path fill="#444444" d="M16.412,202.491v3.582H9.987v-3.582h0.664v2.834h2.07v-2.663h0.659v2.663h2.364v-2.834H16.412z"/>
		<path fill="#444444" d="M9.987,201.066v-1.814c0-0.854,0.127-1.469,0.383-1.85c0.255-0.381,0.657-0.571,1.208-0.571
			c0.381,0,0.694,0.106,0.941,0.319c0.248,0.211,0.408,0.521,0.481,0.929h0.044c0.167-0.976,0.68-1.463,1.538-1.463
			c0.573,0,1.021,0.194,1.345,0.582c0.322,0.389,0.483,0.931,0.483,1.628v2.24H9.987L9.987,201.066z M12.738,200.32v-1.23
			c0-0.527-0.083-0.906-0.247-1.138c-0.165-0.231-0.445-0.347-0.838-0.347c-0.359,0-0.619,0.129-0.779,0.387s-0.24,0.668-0.24,1.23
			v1.098H12.738L12.738,200.32z M13.371,200.32h2.403v-1.34c0-0.521-0.1-0.91-0.301-1.172c-0.2-0.267-0.515-0.396-0.941-0.396
			c-0.398,0-0.691,0.134-0.88,0.398c-0.188,0.271-0.28,0.68-0.28,1.228L13.371,200.32L13.371,200.32z"/>
		<path fill="#444444" d="M16.412,191.197l-2.043,0.8v2.575l2.043,0.791v0.756l-6.451-2.54v-0.628l6.451-2.527V191.197z
			 M13.696,192.23l-1.99,0.746c-0.252,0.098-0.562,0.191-0.928,0.299c0.281,0.062,0.591,0.158,0.928,0.272l1.99,0.761V192.23
			L13.696,192.23z"/>
		<path fill="#444444" d="M13.74,188.793h2.672v0.747H9.987v-1.763c0-0.787,0.151-1.369,0.453-1.746
			c0.303-0.377,0.756-0.564,1.362-0.564c0.85,0,1.424,0.432,1.723,1.292l2.888-1.745v0.883l-2.672,1.561L13.74,188.793
			L13.74,188.793z M13.099,188.793v-1.023c0-0.523-0.104-0.914-0.313-1.16c-0.209-0.242-0.523-0.365-0.942-0.365
			c-0.425,0-0.731,0.125-0.918,0.376c-0.188,0.25-0.281,0.647-0.281,1.206v0.971L13.099,188.793L13.099,188.793z"/>
		<path fill="#444444" d="M14.333,184.491h-0.668v-2.158h0.668V184.491z"/>
		<path fill="#444444" d="M16.412,177.042l-2.043,0.8v2.575l2.043,0.791v0.756l-6.451-2.54v-0.628l6.451-2.526V177.042z
			 M13.696,178.075l-1.99,0.747c-0.252,0.097-0.562,0.195-0.928,0.299c0.281,0.064,0.591,0.156,0.928,0.277l1.99,0.756V178.075
			L13.696,178.075z"/>
	</g>
	<g>
		<path fill="#444444" d="M46.307,216.328c0.565,0,1.006,0.205,1.323,0.615c0.316,0.41,0.474,0.967,0.474,1.67
			c0,0.762-0.098,1.348-0.294,1.758h-0.721c0.111-0.264,0.199-0.551,0.264-0.861c0.065-0.31,0.098-0.617,0.098-0.923
			c0-0.498-0.095-0.873-0.284-1.125c-0.188-0.252-0.452-0.378-0.789-0.378c-0.224,0-0.405,0.045-0.547,0.134
			c-0.143,0.091-0.273,0.239-0.394,0.448c-0.12,0.21-0.256,0.527-0.409,0.956c-0.214,0.599-0.467,1.024-0.76,1.28
			c-0.293,0.257-0.675,0.385-1.146,0.385c-0.495,0-0.89-0.186-1.183-0.559c-0.293-0.371-0.438-0.863-0.438-1.479
			c0-0.642,0.117-1.229,0.352-1.765l0.65,0.23c-0.224,0.53-0.334,1.047-0.334,1.547c0,0.396,0.085,0.705,0.255,0.93
			s0.406,0.334,0.708,0.334c0.223,0,0.405-0.041,0.547-0.121c0.143-0.082,0.272-0.223,0.392-0.416
			c0.118-0.193,0.25-0.492,0.394-0.896c0.24-0.674,0.498-1.137,0.772-1.391C45.51,216.455,45.867,216.328,46.307,216.328z"/>
		<path fill="#444444" d="M48.016,215.014h-6.425v-0.746h6.425V215.014z"/>
		<path fill="#444444" d="M44.742,207.376c1.061,0,1.871,0.288,2.432,0.863c0.562,0.575,0.842,1.403,0.842,2.485v1.774h-6.425v-1.97
			c0-0.998,0.277-1.774,0.831-2.328C42.976,207.652,43.749,207.376,44.742,207.376z M44.769,208.167
			c-0.838,0-1.469,0.21-1.894,0.631s-0.638,1.045-0.638,1.874v1.085h5.134v-0.909c0-0.892-0.22-1.561-0.657-2.009
			C46.276,208.391,45.627,208.167,44.769,208.167z"/>
		<path fill="#444444" d="M48.016,202.361v3.582h-6.425v-3.582h0.664v2.834h2.07v-2.662h0.658v2.662h2.364v-2.834H48.016z"/>
		<path fill="#444444" d="M41.591,200.938v-1.812c0-0.854,0.127-1.469,0.382-1.853c0.255-0.381,0.658-0.568,1.208-0.568
			c0.381,0,0.695,0.104,0.942,0.316c0.248,0.211,0.407,0.521,0.48,0.932h0.044c0.167-0.979,0.681-1.467,1.538-1.467
			c0.574,0,1.022,0.195,1.345,0.582c0.322,0.393,0.483,0.935,0.483,1.632v2.237H41.591L41.591,200.938z M44.342,200.191v-1.23
			c0-0.527-0.083-0.906-0.248-1.138c-0.165-0.232-0.445-0.347-0.837-0.347c-0.36,0-0.62,0.129-0.78,0.387s-0.24,0.668-0.24,1.229
			v1.1H44.342L44.342,200.191z M44.975,200.191h2.404v-1.34c0-0.521-0.101-0.91-0.301-1.172c-0.2-0.267-0.516-0.396-0.942-0.396
			c-0.398,0-0.691,0.134-0.879,0.398c-0.188,0.271-0.281,0.676-0.281,1.228L44.975,200.191L44.975,200.191z"/>
		<path fill="#444444" d="M48.016,191.068l-2.043,0.8v2.575l2.043,0.791v0.756l-6.451-2.54v-0.628l6.451-2.527V191.068z
			 M45.3,192.102l-1.991,0.746c-0.252,0.1-0.561,0.196-0.927,0.299c0.281,0.064,0.59,0.158,0.927,0.277l1.991,0.756V192.102z"/>
		<path fill="#444444" d="M45.344,188.664h2.672v0.747h-6.425v-1.763c0-0.787,0.151-1.369,0.453-1.746
			c0.302-0.377,0.756-0.564,1.361-0.564c0.851,0,1.425,0.432,1.724,1.292l2.887-1.745v0.883l-2.672,1.561V188.664z M44.703,188.664
			v-1.023c0-0.523-0.104-0.914-0.314-1.16c-0.209-0.246-0.522-0.369-0.942-0.369c-0.425,0-0.73,0.125-0.918,0.375
			s-0.28,0.652-0.28,1.207v0.975L44.703,188.664L44.703,188.664z"/>
		<path fill="#444444" d="M45.937,184.361h-0.668v-2.157h0.668V184.361z"/>
		<path fill="#444444" d="M41.591,180.952v-1.815c0-0.853,0.127-1.469,0.382-1.85c0.255-0.381,0.658-0.571,1.208-0.571
			c0.381,0,0.695,0.106,0.942,0.319c0.248,0.212,0.407,0.521,0.48,0.929h0.044c0.167-0.976,0.681-1.463,1.538-1.463
			c0.574,0,1.022,0.194,1.345,0.582c0.322,0.39,0.483,0.931,0.483,1.628v2.241H41.591z M44.342,180.205v-1.23
			c0-0.524-0.083-0.906-0.248-1.138c-0.165-0.232-0.445-0.347-0.837-0.347c-0.36,0-0.62,0.129-0.78,0.387s-0.24,0.668-0.24,1.23
			v1.099L44.342,180.205L44.342,180.205z M44.975,180.205h2.404v-1.34c0-0.521-0.101-0.909-0.301-1.172
			c-0.2-0.262-0.516-0.395-0.942-0.395c-0.398,0-0.691,0.135-0.879,0.402c-0.188,0.268-0.281,0.676-0.281,1.224L44.975,180.205
			L44.975,180.205z"/>
	</g>
	<g>
		<path fill="#444444" d="M218.308,217.457c0.565,0,1.006,0.205,1.323,0.615c0.316,0.41,0.475,0.967,0.475,1.67
			c0,0.762-0.098,1.348-0.294,1.758h-0.721c0.111-0.264,0.199-0.551,0.264-0.861c0.065-0.31,0.098-0.617,0.098-0.923
			c0-0.498-0.095-0.873-0.284-1.125c-0.188-0.252-0.452-0.378-0.789-0.378c-0.224,0-0.405,0.045-0.547,0.135
			c-0.143,0.09-0.273,0.238-0.394,0.447c-0.12,0.21-0.256,0.528-0.409,0.956c-0.214,0.599-0.467,1.024-0.76,1.281
			c-0.293,0.256-0.675,0.384-1.146,0.384c-0.495,0-0.89-0.186-1.183-0.559c-0.293-0.371-0.44-0.863-0.44-1.479
			c0-0.64,0.117-1.229,0.352-1.762l0.65,0.229c-0.224,0.528-0.334,1.045-0.334,1.547c0,0.396,0.085,0.705,0.255,0.931
			c0.17,0.222,0.406,0.334,0.708,0.334c0.223,0,0.405-0.041,0.547-0.123c0.143-0.082,0.272-0.224,0.392-0.416
			c0.118-0.194,0.25-0.493,0.394-0.896c0.24-0.676,0.498-1.14,0.772-1.394C217.511,217.584,217.868,217.457,218.308,217.457z"/>
		<path fill="#444444" d="M220.017,216.143h-6.425v-0.746h6.425V216.143z"/>
		<path fill="#444444" d="M216.743,208.505c1.061,0,1.871,0.288,2.432,0.863c0.562,0.575,0.842,1.403,0.842,2.485v1.774h-6.425
			v-1.969c0-0.999,0.277-1.771,0.831-2.329C214.977,208.781,215.75,208.505,216.743,208.505z M216.77,209.296
			c-0.838,0-1.469,0.21-1.894,0.631s-0.638,1.046-0.638,1.874v1.086h5.134v-0.91c0-0.892-0.22-1.561-0.657-2.009
			C218.277,209.52,217.628,209.296,216.77,209.296z"/>
		<path fill="#444444" d="M220.017,203.491v3.582h-6.425v-3.582h0.664v2.834h2.07v-2.663h0.658v2.663h2.364v-2.834H220.017z"/>
		<path fill="#444444" d="M213.592,202.066v-1.814c0-0.854,0.127-1.469,0.382-1.85c0.255-0.381,0.658-0.571,1.208-0.571
			c0.381,0,0.695,0.106,0.942,0.319c0.248,0.211,0.408,0.521,0.48,0.929h0.044c0.167-0.976,0.681-1.463,1.538-1.463
			c0.574,0,1.022,0.194,1.346,0.582c0.321,0.389,0.482,0.931,0.482,1.628v2.24H213.592L213.592,202.066z M216.343,201.32v-1.23
			c0-0.527-0.083-0.906-0.248-1.138c-0.165-0.231-0.445-0.347-0.837-0.347c-0.36,0-0.62,0.129-0.78,0.387s-0.24,0.668-0.24,1.23
			v1.098H216.343L216.343,201.32z M216.976,201.32h2.404v-1.34c0-0.521-0.101-0.91-0.301-1.172c-0.2-0.267-0.516-0.396-0.942-0.396
			c-0.398,0-0.691,0.134-0.879,0.398c-0.188,0.271-0.281,0.68-0.281,1.228L216.976,201.32L216.976,201.32z"/>
		<path fill="#444444" d="M220.017,192.197l-2.043,0.8v2.575l2.043,0.791v0.756l-6.451-2.54v-0.628l6.451-2.527V192.197z
			 M217.301,193.23l-1.991,0.746c-0.252,0.098-0.561,0.191-0.927,0.299c0.281,0.062,0.59,0.158,0.927,0.272l1.991,0.761V193.23z"/>
		<path fill="#444444" d="M217.345,189.793h2.672v0.747h-6.425v-1.763c0-0.787,0.151-1.369,0.453-1.746
			c0.302-0.377,0.756-0.564,1.362-0.564c0.85,0,1.424,0.432,1.723,1.292l2.887-1.745v0.883l-2.672,1.561V189.793z M216.704,189.793
			v-1.023c0-0.523-0.104-0.914-0.314-1.16c-0.209-0.242-0.522-0.365-0.942-0.365c-0.425,0-0.73,0.125-0.918,0.376
			c-0.188,0.25-0.28,0.647-0.28,1.206v0.971L216.704,189.793L216.704,189.793z"/>
		<path fill="#444444" d="M217.938,185.491h-0.668v-2.158h0.668V185.491z"/>
		<path fill="#444444" d="M220.017,178.042l-2.043,0.8v2.575l2.043,0.791v0.756l-6.451-2.54v-0.628l6.451-2.526V178.042z
			 M217.301,179.075l-1.991,0.747c-0.252,0.097-0.561,0.195-0.927,0.299c0.281,0.064,0.59,0.156,0.927,0.277l1.991,0.756V179.075z"
			/>
	</g>
	<g>
		<path fill="#444444" d="M249.702,217.327c0.564,0,1.007,0.205,1.322,0.614c0.315,0.41,0.476,0.968,0.476,1.67
			c0,0.763-0.101,1.349-0.295,1.759h-0.722c0.111-0.265,0.199-0.552,0.265-0.861c0.063-0.309,0.098-0.616,0.098-0.923
			c0-0.498-0.096-0.873-0.285-1.125c-0.188-0.252-0.451-0.378-0.787-0.378c-0.224,0-0.404,0.045-0.549,0.135
			c-0.141,0.091-0.271,0.238-0.393,0.447c-0.12,0.21-0.256,0.528-0.408,0.956c-0.215,0.6-0.468,1.023-0.761,1.281
			c-0.293,0.256-0.676,0.384-1.147,0.384c-0.494,0-0.889-0.187-1.182-0.56c-0.293-0.371-0.439-0.863-0.439-1.479
			c0-0.644,0.117-1.229,0.353-1.765l0.649,0.232c-0.224,0.528-0.334,1.045-0.334,1.547c0,0.396,0.084,0.705,0.254,0.926
			c0.17,0.227,0.406,0.334,0.709,0.334c0.224,0,0.404-0.039,0.547-0.121c0.144-0.08,0.271-0.221,0.393-0.416
			c0.118-0.191,0.25-0.49,0.394-0.895c0.24-0.675,0.498-1.139,0.772-1.393C248.904,217.454,249.262,217.327,249.702,217.327z"/>
		<path fill="#444444" d="M251.412,216.014h-6.427v-0.746h6.427V216.014z"/>
		<path fill="#444444" d="M248.137,208.375c1.062,0,1.872,0.288,2.434,0.863c0.562,0.574,0.843,1.402,0.843,2.484v1.775h-6.427
			v-1.969c0-1,0.277-1.775,0.832-2.329C246.372,208.65,247.145,208.375,248.137,208.375z M248.164,209.166
			c-0.838,0-1.47,0.21-1.896,0.631c-0.424,0.421-0.637,1.046-0.637,1.874v1.085h5.133v-0.908c0-0.893-0.219-1.562-0.656-2.01
			C249.67,209.393,249.021,209.166,248.164,209.166z"/>
		<path fill="#444444" d="M251.412,203.361v3.582h-6.427v-3.582h0.664v2.834h2.07v-2.663h0.659v2.663h2.365v-2.834H251.412z"/>
		<path fill="#444444" d="M244.986,201.938v-1.812c0-0.854,0.127-1.472,0.383-1.853c0.255-0.381,0.656-0.568,1.208-0.568
			c0.381,0,0.694,0.104,0.94,0.316c0.248,0.211,0.408,0.521,0.482,0.932h0.043c0.168-0.979,0.68-1.467,1.539-1.467
			c0.573,0,1.021,0.195,1.344,0.582c0.322,0.393,0.484,0.935,0.484,1.632v2.237H244.986L244.986,201.938z M247.736,201.189v-1.229
			c0-0.526-0.082-0.905-0.248-1.138c-0.163-0.231-0.443-0.348-0.836-0.348c-0.359,0-0.619,0.129-0.779,0.387
			c-0.16,0.259-0.24,0.668-0.24,1.229v1.1H247.736L247.736,201.189z M248.371,201.189h2.401v-1.34c0-0.521-0.101-0.91-0.301-1.176
			c-0.199-0.262-0.515-0.395-0.941-0.395c-0.397,0-0.69,0.135-0.879,0.398c-0.188,0.271-0.28,0.676-0.28,1.229V201.189
			L248.371,201.189z"/>
		<path fill="#444444" d="M251.412,192.066l-2.044,0.801v2.574l2.044,0.791v0.756l-6.452-2.539v-0.629l6.452-2.526V192.066z
			 M248.695,193.102l-1.989,0.746c-0.252,0.1-0.562,0.195-0.929,0.299c0.281,0.063,0.592,0.158,0.929,0.276l1.989,0.757V193.102z"/>
		<path fill="#444444" d="M248.74,189.663h2.672v0.747h-6.427v-1.764c0-0.787,0.152-1.369,0.453-1.746
			c0.304-0.377,0.756-0.563,1.362-0.563c0.851,0,1.425,0.433,1.724,1.292l2.889-1.745v0.884l-2.672,1.56L248.74,189.663
			L248.74,189.663z M248.098,189.663v-1.022c0-0.524-0.104-0.914-0.313-1.16s-0.523-0.369-0.942-0.369
			c-0.425,0-0.731,0.125-0.918,0.375c-0.188,0.25-0.28,0.652-0.28,1.207v0.974L248.098,189.663L248.098,189.663z"/>
		<path fill="#444444" d="M249.332,185.361h-0.668v-2.158h0.668V185.361z"/>
		<path fill="#444444" d="M244.986,181.951v-1.815c0-0.853,0.127-1.469,0.383-1.85c0.255-0.381,0.656-0.571,1.208-0.571
			c0.381,0,0.694,0.105,0.94,0.319c0.248,0.212,0.408,0.521,0.482,0.929h0.043c0.168-0.977,0.68-1.463,1.539-1.463
			c0.573,0,1.021,0.193,1.344,0.582c0.322,0.391,0.484,0.932,0.484,1.628v2.241H244.986z M247.736,181.204v-1.229
			c0-0.523-0.082-0.906-0.248-1.139c-0.163-0.23-0.443-0.347-0.836-0.347c-0.359,0-0.619,0.129-0.779,0.387s-0.24,0.668-0.24,1.229
			v1.1L247.736,181.204L247.736,181.204z M248.371,181.204h2.401v-1.34c0-0.521-0.101-0.909-0.301-1.171
			c-0.199-0.264-0.515-0.396-0.941-0.396c-0.397,0-0.69,0.134-0.879,0.401c-0.188,0.268-0.28,0.676-0.28,1.224V181.204
			L248.371,181.204z"/>
	</g>
	<path fill="#444444" d="M103.477,237.75l-2.18-5.695h-0.035c0.041,0.451,0.062,0.987,0.062,1.608v4.087h-0.69v-6.425h1.125
		l2.035,5.3h0.035l2.052-5.3h1.116v6.425h-0.747v-4.141c0-0.476,0.021-0.989,0.062-1.547h-0.035l-2.196,5.688H103.477z"/>
	<path fill="#444444" d="M112.797,237.75l-0.8-2.043h-2.575l-0.791,2.043h-0.756l2.54-6.451h0.628l2.526,6.451H112.797z
		 M111.765,235.034l-0.747-1.991c-0.097-0.251-0.196-0.561-0.299-0.927c-0.064,0.28-0.157,0.591-0.277,0.927l-0.756,1.991H111.765z"
		/>
	<path fill="#444444" d="M114.454,237.75v-6.425h0.747v6.425H114.454z"/>
	<path fill="#444444" d="M121.982,237.75h-0.853l-3.511-5.393h-0.035c0.047,0.633,0.069,1.213,0.069,1.74v3.65h-0.689v-6.425h0.844
		l3.502,5.368h0.035c-0.006-0.078-0.019-0.332-0.04-0.762s-0.028-0.736-0.021-0.922v-3.688h0.698L121.982,237.75L121.982,237.75z"/>
	<path fill="#444444" d="M123.234,235.672v-0.668h2.158v0.668H123.234z"/>
	<path fill="#444444" d="M126.645,231.325h1.815c0.853,0,1.469,0.128,1.85,0.382c0.381,0.256,0.571,0.658,0.571,1.209
		c0,0.381-0.106,0.695-0.319,0.941c-0.212,0.248-0.521,0.408-0.929,0.48v0.044c0.976,0.167,1.463,0.681,1.463,1.538
		c0,0.574-0.194,1.021-0.582,1.346c-0.389,0.321-0.931,0.482-1.628,0.482h-2.241V231.325z M127.392,234.076h1.23
		c0.526,0,0.906-0.083,1.138-0.248c0.231-0.166,0.347-0.444,0.347-0.838c0-0.359-0.129-0.62-0.387-0.779
		c-0.258-0.16-0.668-0.24-1.229-0.24h-1.1L127.392,234.076L127.392,234.076z M127.392,234.709v2.404h1.34
		c0.52,0,0.909-0.102,1.171-0.303c0.263-0.199,0.395-0.516,0.395-0.941c0-0.398-0.134-0.691-0.402-0.879s-0.676-0.281-1.224-0.281
		H127.392L127.392,234.709z"/>
	<path fill="#444444" d="M138.053,234.529c0,1.027-0.26,1.836-0.78,2.426c-0.52,0.588-1.243,0.883-2.168,0.883
		c-0.945,0-1.676-0.289-2.19-0.867c-0.515-0.578-0.771-1.396-0.771-2.451c0-1.045,0.258-1.854,0.773-2.432s1.248-0.863,2.196-0.863
		c0.924,0,1.645,0.293,2.162,0.879C137.793,232.689,138.053,233.498,138.053,234.529z M132.933,234.529
		c0,0.869,0.186,1.529,0.556,1.979c0.37,0.45,0.909,0.676,1.615,0.676c0.712,0,1.25-0.226,1.613-0.674
		c0.363-0.447,0.545-1.107,0.545-1.98c0-0.863-0.181-1.521-0.543-1.967c-0.362-0.446-0.897-0.67-1.606-0.67
		c-0.712,0-1.253,0.226-1.624,0.674C133.118,233.018,132.933,233.671,132.933,234.529z"/>
	<path fill="#444444" d="M141.463,237.75h-0.747v-5.762h-2.035v-0.663h4.816v0.663h-2.035L141.463,237.75L141.463,237.75z"/>
	<path fill="#444444" d="M146.442,237.75h-0.747v-5.762h-2.034v-0.663h4.815v0.663h-2.035L146.442,237.75L146.442,237.75z"/>
	<path fill="#444444" d="M155.02,234.529c0,1.027-0.26,1.836-0.779,2.426c-0.521,0.588-1.243,0.883-2.169,0.883
		c-0.945,0-1.676-0.289-2.19-0.867c-0.514-0.578-0.771-1.396-0.771-2.451c0-1.045,0.259-1.854,0.773-2.432
		c0.516-0.576,1.248-0.863,2.197-0.863c0.923,0,1.644,0.293,2.162,0.879C154.76,232.689,155.02,233.498,155.02,234.529z
		 M149.9,234.529c0,0.869,0.186,1.529,0.557,1.979c0.37,0.449,0.908,0.676,1.614,0.676c0.713,0,1.25-0.226,1.613-0.674
		c0.363-0.447,0.545-1.107,0.545-1.98c0-0.863-0.181-1.521-0.543-1.967c-0.361-0.446-0.896-0.67-1.605-0.67
		c-0.712,0-1.253,0.226-1.624,0.674C150.085,233.018,149.9,233.671,149.9,234.529z"/>
	<path fill="#444444" d="M159.296,237.75l-2.18-5.695h-0.035c0.041,0.451,0.062,0.987,0.062,1.608v4.087h-0.689v-6.425h1.125
		l2.034,5.3h0.035l2.053-5.3h1.115v6.425h-0.747v-4.141c0-0.476,0.021-0.989,0.062-1.547h-0.035l-2.197,5.688H159.296z"/>
	<path fill="#444444" d="M113.477,165.75l-2.18-5.695h-0.035c0.041,0.451,0.062,0.987,0.062,1.608v4.087h-0.69v-6.425h1.125
		l2.035,5.3h0.035l2.052-5.3h1.116v6.425h-0.747v-4.141c0-0.475,0.021-0.989,0.062-1.547h-0.035l-2.196,5.688H113.477z"/>
	<path fill="#444444" d="M122.797,165.75l-0.8-2.043h-2.575l-0.791,2.043h-0.756l2.54-6.451h0.628l2.526,6.451H122.797z
		 M121.765,163.034l-0.747-1.991c-0.097-0.251-0.196-0.561-0.299-0.927c-0.064,0.28-0.157,0.591-0.277,0.927l-0.756,1.991H121.765z"
		/>
	<path fill="#444444" d="M124.454,165.75v-6.425h0.747v6.425H124.454z"/>
	<path fill="#444444" d="M131.982,165.75h-0.853l-3.511-5.393h-0.035c0.047,0.633,0.069,1.213,0.069,1.74v3.651h-0.689v-6.425h0.844
		l3.502,5.369h0.035c-0.006-0.078-0.019-0.332-0.04-0.762c-0.021-0.43-0.028-0.736-0.021-0.922v-3.687h0.698L131.982,165.75
		L131.982,165.75z"/>
	<path fill="#444444" d="M133.234,163.672v-0.668h2.158v0.668H133.234z"/>
	<path fill="#444444" d="M138.622,165.75h-0.747v-5.762h-2.035v-0.663h4.815v0.663h-2.034L138.622,165.75L138.622,165.75z"/>
	<path fill="#444444" d="M147.2,162.529c0,1.027-0.261,1.836-0.78,2.426c-0.521,0.588-1.243,0.883-2.168,0.883
		c-0.946,0-1.676-0.289-2.191-0.868c-0.514-0.577-0.771-1.396-0.771-2.45c0-1.045,0.258-1.855,0.772-2.432
		c0.517-0.576,1.248-0.863,2.197-0.863c0.923,0,1.644,0.293,2.162,0.879C146.94,160.689,147.2,161.498,147.2,162.529z
		 M142.081,162.529c0,0.869,0.185,1.529,0.556,1.979c0.37,0.449,0.909,0.676,1.615,0.676c0.712,0,1.25-0.226,1.613-0.674
		c0.362-0.447,0.545-1.107,0.545-1.979c0-0.864-0.182-1.521-0.543-1.967c-0.362-0.447-0.897-0.67-1.606-0.67
		c-0.712,0-1.253,0.225-1.624,0.674C142.266,161.018,142.081,161.671,142.081,162.529z"/>
	<path fill="#444444" d="M152.707,161.197c0,0.65-0.223,1.15-0.666,1.501c-0.443,0.35-1.079,0.524-1.905,0.524h-0.756v2.526h-0.747
		v-6.425h1.666C151.904,159.325,152.707,159.949,152.707,161.197z M149.38,162.582h0.672c0.662,0,1.141-0.107,1.437-0.321
		c0.297-0.214,0.444-0.557,0.444-1.028c0-0.424-0.139-0.74-0.417-0.948c-0.278-0.208-0.712-0.312-1.301-0.312h-0.835V162.582
		L149.38,162.582z"/>
	<g>
		<path fill="#444444" d="M150.144,55.921v-0.668h2.158v0.668H150.144z"/>
		<path fill="#444444" d="M157.593,58l-0.8-2.043h-2.575L153.427,58h-0.756l2.54-6.451h0.628L158.366,58H157.593z M156.56,55.284
			l-0.747-1.991c-0.097-0.252-0.195-0.561-0.299-0.927c-0.063,0.281-0.156,0.59-0.276,0.927l-0.756,1.991H156.56z"/>
		<path fill="#444444" d="M101.635,51.722h3.303v0.664h-2.512v2.038h2.32v0.655h-2.32v2.775h-0.792L101.635,51.722L101.635,51.722z"
			/>
		<path fill="#444444" d="M106.86,51.722v3.63c0,1.374,0.61,1.957,1.43,1.957c0.91,0,1.492-0.601,1.492-1.957v-3.63h0.8v3.576
			c0,1.884-0.992,2.657-2.319,2.657c-1.256,0-2.203-0.719-2.203-2.62v-3.612L106.86,51.722L106.86,51.722z"/>
		<path fill="#444444" d="M111.958,51.722h0.791v5.469h2.621v0.664h-3.412V51.722z"/>
		<path fill="#444444" d="M116.255,51.722h0.791v5.469h2.621v0.664h-3.412V51.722z"/>
		<path fill="#444444" d="M120.443,56.89c0.355,0.219,0.874,0.4,1.421,0.4c0.81,0,1.282-0.427,1.282-1.046
			c0-0.574-0.328-0.901-1.154-1.22c-1.001-0.354-1.62-0.873-1.62-1.737c0-0.956,0.792-1.666,1.982-1.666
			c0.628,0,1.083,0.145,1.356,0.3l-0.218,0.646c-0.2-0.109-0.609-0.291-1.165-0.291c-0.837,0-1.156,0.5-1.156,0.919
			c0,0.573,0.374,0.855,1.219,1.183c1.038,0.4,1.565,0.901,1.565,1.802c0,0.946-0.701,1.765-2.148,1.765
			c-0.591,0-1.236-0.173-1.563-0.391L120.443,56.89z"/>
		<path fill="#444444" d="M129.326,57.655c-0.292,0.146-0.874,0.291-1.619,0.291c-1.729,0-3.03-1.092-3.03-3.103
			c0-1.92,1.301-3.221,3.203-3.221c0.765,0,1.247,0.164,1.456,0.273l-0.191,0.646c-0.3-0.146-0.728-0.255-1.237-0.255
			c-1.438,0-2.394,0.919-2.394,2.529c0,1.502,0.864,2.466,2.356,2.466c0.481,0,0.974-0.1,1.292-0.254L129.326,57.655z"/>
		<path fill="#444444" d="M130.322,51.804c0.399-0.082,0.973-0.127,1.52-0.127c0.846,0,1.392,0.155,1.774,0.5
			c0.309,0.273,0.481,0.691,0.481,1.164c0,0.811-0.51,1.347-1.156,1.565v0.027c0.474,0.164,0.756,0.601,0.901,1.237
			c0.2,0.855,0.346,1.447,0.473,1.683h-0.818c-0.101-0.172-0.237-0.701-0.41-1.464c-0.182-0.846-0.509-1.165-1.229-1.192h-0.745
			v2.657h-0.793v-6.05H130.322z M131.113,54.597h0.81c0.846,0,1.383-0.464,1.383-1.165c0-0.792-0.573-1.137-1.41-1.146
			c-0.382,0-0.654,0.037-0.781,0.073L131.113,54.597L131.113,54.597z"/>
		<path fill="#444444" d="M138.393,54.979h-2.384v2.211h2.657v0.664h-3.449v-6.132h3.312v0.664h-2.521v1.938h2.384L138.393,54.979
			L138.393,54.979z"/>
		<path fill="#444444" d="M142.872,54.979h-2.384v2.211h2.656v0.664h-3.447v-6.132h3.312v0.664h-2.521v1.938h2.384V54.979z"/>
		<path fill="#444444" d="M144.177,57.854v-6.132h0.864l1.965,3.103c0.455,0.719,0.81,1.365,1.101,1.993l0.02-0.009
			c-0.073-0.819-0.091-1.565-0.091-2.521v-2.565h0.746v6.132h-0.802l-1.946-3.111c-0.429-0.682-0.837-1.383-1.146-2.047
			l-0.027,0.009c0.046,0.773,0.063,1.51,0.063,2.529v2.62L144.177,57.854L144.177,57.854z"/>
	</g>
	<g>
		<path fill="#444444" d="M153.671,105.554h1.814c0.854,0,1.469,0.127,1.851,0.382c0.381,0.255,0.57,0.658,0.57,1.208
			c0,0.381-0.105,0.695-0.318,0.942c-0.212,0.248-0.522,0.408-0.93,0.481v0.044c0.977,0.167,1.463,0.68,1.463,1.538
			c0,0.574-0.193,1.022-0.582,1.345c-0.389,0.322-0.931,0.483-1.628,0.483h-2.24V105.554z M154.418,108.305h1.229
			c0.527,0,0.907-0.083,1.138-0.248s0.348-0.445,0.348-0.837c0-0.36-0.129-0.62-0.388-0.78c-0.258-0.16-0.668-0.24-1.229-0.24
			h-1.099L154.418,108.305L154.418,108.305z M154.418,108.938v2.404h1.34c0.519,0,0.909-0.1,1.171-0.301
			c0.262-0.2,0.394-0.515,0.394-0.942c0-0.398-0.134-0.691-0.401-0.879c-0.269-0.188-0.677-0.281-1.225-0.281L154.418,108.938
			L154.418,108.938z"/>
		<path fill="#444444" d="M150.144,109.921v-0.668h2.158v0.668H150.144z"/>
		<path fill="#444444" d="M101.635,105.722h3.303v0.664h-2.512v2.038h2.32v0.655h-2.32v2.775h-0.792L101.635,105.722
			L101.635,105.722z"/>
		<path fill="#444444" d="M106.86,105.722v3.63c0,1.374,0.61,1.957,1.43,1.957c0.91,0,1.492-0.601,1.492-1.957v-3.63h0.8v3.576
			c0,1.884-0.992,2.657-2.319,2.657c-1.256,0-2.203-0.719-2.203-2.62v-3.612L106.86,105.722L106.86,105.722z"/>
		<path fill="#444444" d="M111.958,105.722h0.791v5.469h2.621v0.664h-3.412V105.722z"/>
		<path fill="#444444" d="M116.255,105.722h0.791v5.469h2.621v0.664h-3.412V105.722z"/>
		<path fill="#444444" d="M120.443,110.89c0.355,0.219,0.874,0.4,1.421,0.4c0.81,0,1.282-0.427,1.282-1.046
			c0-0.574-0.328-0.901-1.154-1.22c-1.001-0.354-1.62-0.873-1.62-1.737c0-0.956,0.792-1.666,1.982-1.666
			c0.628,0,1.083,0.145,1.356,0.3l-0.218,0.646c-0.2-0.109-0.609-0.291-1.165-0.291c-0.837,0-1.156,0.5-1.156,0.919
			c0,0.573,0.374,0.855,1.219,1.183c1.038,0.4,1.565,0.901,1.565,1.802c0,0.946-0.701,1.765-2.148,1.765
			c-0.591,0-1.236-0.173-1.563-0.391L120.443,110.89z"/>
		<path fill="#444444" d="M129.326,111.655c-0.292,0.146-0.874,0.291-1.619,0.291c-1.729,0-3.03-1.092-3.03-3.103
			c0-1.92,1.301-3.221,3.203-3.221c0.765,0,1.247,0.164,1.456,0.273l-0.191,0.646c-0.3-0.146-0.728-0.255-1.237-0.255
			c-1.438,0-2.394,0.919-2.394,2.529c0,1.502,0.864,2.466,2.356,2.466c0.481,0,0.974-0.1,1.292-0.254L129.326,111.655z"/>
		<path fill="#444444" d="M130.322,105.804c0.399-0.082,0.973-0.127,1.52-0.127c0.846,0,1.392,0.155,1.774,0.5
			c0.309,0.273,0.481,0.691,0.481,1.164c0,0.811-0.51,1.347-1.156,1.565v0.027c0.474,0.164,0.756,0.601,0.901,1.237
			c0.2,0.855,0.346,1.447,0.473,1.683h-0.818c-0.101-0.172-0.237-0.701-0.41-1.464c-0.182-0.846-0.509-1.165-1.229-1.192h-0.745
			v2.657h-0.793v-6.05H130.322z M131.113,108.597h0.81c0.846,0,1.383-0.464,1.383-1.165c0-0.792-0.573-1.137-1.41-1.146
			c-0.382,0-0.654,0.037-0.781,0.073L131.113,108.597L131.113,108.597z"/>
		<path fill="#444444" d="M138.393,108.979h-2.384v2.211h2.657v0.664h-3.449v-6.132h3.312v0.664h-2.521v1.938h2.384L138.393,108.979
			L138.393,108.979z"/>
		<path fill="#444444" d="M142.872,108.979h-2.384v2.211h2.656v0.664h-3.447v-6.132h3.312v0.664h-2.521v1.938h2.384V108.979z"/>
		<path fill="#444444" d="M144.177,111.854v-6.132h0.864l1.965,3.103c0.455,0.719,0.81,1.365,1.101,1.993l0.02-0.009
			c-0.073-0.819-0.091-1.565-0.091-2.521v-2.565h0.746v6.132h-0.802l-1.946-3.111c-0.429-0.682-0.837-1.383-1.146-2.047
			l-0.027,0.009c0.046,0.773,0.063,1.51,0.063,2.529v2.62L144.177,111.854L144.177,111.854z"/>
	</g>
	<g>
		<path fill="#444444" d="M150.144,260.921v-0.668h2.158v0.668H150.144z"/>
		<path fill="#444444" d="M101.635,256.723h3.303v0.663h-2.512v2.038h2.32v0.654h-2.32v2.775h-0.792L101.635,256.723
			L101.635,256.723z"/>
		<path fill="#444444" d="M106.86,256.723v3.629c0,1.375,0.61,1.957,1.43,1.957c0.91,0,1.492-0.602,1.492-1.957v-3.629h0.8v3.575
			c0,1.884-0.992,2.657-2.319,2.657c-1.256,0-2.203-0.719-2.203-2.62v-3.612H106.86L106.86,256.723z"/>
		<path fill="#444444" d="M111.958,256.723h0.791v5.469h2.621v0.664h-3.412V256.723z"/>
		<path fill="#444444" d="M116.255,256.723h0.791v5.469h2.621v0.664h-3.412V256.723z"/>
		<path fill="#444444" d="M120.443,261.891c0.355,0.219,0.874,0.398,1.421,0.398c0.81,0,1.282-0.426,1.282-1.045
			c0-0.574-0.328-0.901-1.154-1.221c-1.001-0.354-1.62-0.873-1.62-1.736c0-0.957,0.792-1.666,1.982-1.666
			c0.628,0,1.083,0.145,1.356,0.3l-0.218,0.646c-0.2-0.108-0.609-0.291-1.165-0.291c-0.837,0-1.156,0.5-1.156,0.92
			c0,0.572,0.374,0.854,1.219,1.184c1.038,0.398,1.565,0.901,1.565,1.803c0,0.944-0.701,1.766-2.148,1.766
			c-0.591,0-1.236-0.174-1.563-0.393L120.443,261.891z"/>
		<path fill="#444444" d="M129.326,262.654c-0.292,0.146-0.874,0.291-1.619,0.291c-1.729,0-3.03-1.092-3.03-3.104
			c0-1.92,1.301-3.222,3.203-3.222c0.765,0,1.247,0.164,1.456,0.272l-0.191,0.646c-0.3-0.146-0.728-0.256-1.237-0.256
			c-1.438,0-2.394,0.92-2.394,2.529c0,1.502,0.864,2.467,2.356,2.467c0.481,0,0.974-0.102,1.292-0.254L129.326,262.654z"/>
		<path fill="#444444" d="M158.216,262.654c-0.292,0.146-0.874,0.291-1.619,0.291c-1.729,0-3.03-1.092-3.03-3.104
			c0-1.92,1.301-3.222,3.203-3.222c0.765,0,1.247,0.164,1.456,0.272l-0.191,0.646c-0.3-0.146-0.728-0.256-1.237-0.256
			c-1.438,0-2.394,0.92-2.394,2.529c0,1.502,0.864,2.467,2.356,2.467c0.481,0,0.974-0.102,1.292-0.254L158.216,262.654z"/>
		<path fill="#444444" d="M130.322,256.805c0.399-0.082,0.973-0.128,1.52-0.128c0.846,0,1.392,0.155,1.774,0.5
			c0.309,0.272,0.481,0.69,0.481,1.164c0,0.812-0.51,1.347-1.156,1.565v0.025c0.474,0.164,0.756,0.602,0.901,1.237
			c0.2,0.854,0.346,1.447,0.473,1.683h-0.818c-0.101-0.172-0.237-0.699-0.41-1.463c-0.182-0.847-0.509-1.166-1.229-1.191h-0.745
			v2.656h-0.793v-6.051h0.002V256.805z M131.113,259.598h0.81c0.846,0,1.383-0.465,1.383-1.166c0-0.791-0.573-1.137-1.41-1.146
			c-0.382,0-0.654,0.036-0.781,0.073L131.113,259.598L131.113,259.598z"/>
		<path fill="#444444" d="M138.393,259.979h-2.384v2.211h2.657v0.664h-3.449v-6.131h3.312v0.664h-2.521v1.938h2.384L138.393,259.979
			L138.393,259.979z"/>
		<path fill="#444444" d="M142.872,259.979h-2.384v2.211h2.656v0.664h-3.447v-6.131h3.312v0.664h-2.521v1.938h2.384V259.979z"/>
		<path fill="#444444" d="M144.177,262.854v-6.131h0.864l1.965,3.103c0.455,0.72,0.81,1.364,1.101,1.993l0.02-0.01
			c-0.073-0.817-0.091-1.563-0.091-2.521v-2.563h0.746v6.131h-0.802l-1.946-3.109c-0.429-0.684-0.837-1.383-1.146-2.047
			l-0.027,0.008c0.046,0.773,0.063,1.511,0.063,2.529v2.619L144.177,262.854L144.177,262.854z"/>
	</g>
	<g>
		<path fill="#444444" d="M158.691,313.58c0,1.061-0.288,1.871-0.863,2.432c-0.575,0.562-1.403,0.842-2.485,0.842h-1.775v-6.424
			h1.969c0.999,0,1.775,0.276,2.329,0.83C158.414,311.812,158.691,312.587,158.691,313.58z M157.9,313.605
			c0-0.838-0.21-1.469-0.631-1.894s-1.045-0.638-1.874-0.638h-1.085v5.134h0.909c0.892,0,1.561-0.22,2.009-0.657
			C157.676,315.113,157.9,314.465,157.9,313.605z"/>
		<path fill="#444444" d="M150.144,314.921v-0.668h2.158v0.668H150.144z"/>
		<path fill="#444444" d="M101.635,310.723h3.303v0.663h-2.512v2.038h2.32v0.654h-2.32v2.775h-0.792L101.635,310.723
			L101.635,310.723z"/>
		<path fill="#444444" d="M106.86,310.723v3.629c0,1.375,0.61,1.957,1.43,1.957c0.91,0,1.492-0.602,1.492-1.957v-3.629h0.8v3.575
			c0,1.884-0.992,2.657-2.319,2.657c-1.256,0-2.203-0.719-2.203-2.62v-3.612H106.86L106.86,310.723z"/>
		<path fill="#444444" d="M111.958,310.723h0.791v5.469h2.621v0.664h-3.412V310.723z"/>
		<path fill="#444444" d="M116.255,310.723h0.791v5.469h2.621v0.664h-3.412V310.723z"/>
		<path fill="#444444" d="M120.443,315.891c0.355,0.219,0.874,0.398,1.421,0.398c0.81,0,1.282-0.426,1.282-1.045
			c0-0.574-0.328-0.901-1.154-1.221c-1.001-0.354-1.62-0.873-1.62-1.736c0-0.957,0.792-1.666,1.982-1.666
			c0.628,0,1.083,0.145,1.356,0.3l-0.218,0.646c-0.2-0.108-0.609-0.291-1.165-0.291c-0.837,0-1.156,0.5-1.156,0.92
			c0,0.572,0.374,0.854,1.219,1.184c1.038,0.398,1.565,0.901,1.565,1.803c0,0.944-0.701,1.766-2.148,1.766
			c-0.591,0-1.236-0.174-1.563-0.393L120.443,315.891z"/>
		<path fill="#444444" d="M129.326,316.654c-0.292,0.146-0.874,0.291-1.619,0.291c-1.729,0-3.03-1.092-3.03-3.104
			c0-1.92,1.301-3.222,3.203-3.222c0.765,0,1.247,0.164,1.456,0.272l-0.191,0.646c-0.3-0.146-0.728-0.256-1.237-0.256
			c-1.438,0-2.394,0.92-2.394,2.529c0,1.502,0.864,2.467,2.356,2.467c0.481,0,0.974-0.102,1.292-0.254L129.326,316.654z"/>
		<path fill="#444444" d="M130.322,310.805c0.399-0.082,0.973-0.128,1.52-0.128c0.846,0,1.392,0.155,1.774,0.5
			c0.309,0.272,0.481,0.69,0.481,1.164c0,0.812-0.51,1.347-1.156,1.565v0.025c0.474,0.164,0.756,0.602,0.901,1.237
			c0.2,0.854,0.346,1.447,0.473,1.683h-0.818c-0.101-0.172-0.237-0.699-0.41-1.463c-0.182-0.847-0.509-1.166-1.229-1.191h-0.745
			v2.656h-0.793v-6.051h0.002V310.805z M131.113,313.598h0.81c0.846,0,1.383-0.465,1.383-1.166c0-0.791-0.573-1.137-1.41-1.146
			c-0.382,0-0.654,0.036-0.781,0.073L131.113,313.598L131.113,313.598z"/>
		<path fill="#444444" d="M138.393,313.979h-2.384v2.211h2.657v0.664h-3.449v-6.131h3.312v0.664h-2.521v1.938h2.384L138.393,313.979
			L138.393,313.979z"/>
		<path fill="#444444" d="M142.872,313.979h-2.384v2.211h2.656v0.664h-3.447v-6.131h3.312v0.664h-2.521v1.938h2.384V313.979z"/>
		<path fill="#444444" d="M144.177,316.854v-6.131h0.864l1.965,3.103c0.455,0.72,0.81,1.364,1.101,1.993l0.02-0.01
			c-0.073-0.817-0.091-1.563-0.091-2.521v-2.563h0.746v6.131h-0.802l-1.946-3.109c-0.429-0.684-0.837-1.383-1.146-2.047
			l-0.027,0.008c0.046,0.773,0.063,1.511,0.063,2.529v2.619L144.177,316.854L144.177,316.854z"/>
	</g>
</g>
</svg>
