<?xml version="1.0" encoding="utf-8"?>
<!DOCTYPE svg PUBLIC "-//W3C//DTD SVG 1.1//EN" "http://www.w3.org/Graphics/SVG/1.1/DTD/svg11.dtd">
<svg version="1.1" id="features_icon_warp" xmlns="http://www.w3.org/2000/svg" xmlns:xlink="http://www.w3.org/1999/xlink" x="0px"
	 y="0px" width="150px" height="150px" viewBox="0 0 150 150" enable-background="new 0 0 150 150" xml:space="preserve">
<path fill="#999999" d="M132.5,111.799c0,11.436-9.268,20.701-20.701,20.701H38.2c-11.432,0-20.7-9.27-20.7-20.701V38.201
	c0-11.436,9.269-20.701,20.7-20.701h73.6c11.433,0,20.699,9.27,20.699,20.701L132.5,111.799L132.5,111.799z"/>
<g>
	<path fill="#FFFFFF" d="M61.714,75.256c0,2.494-0.654,4.383-1.963,5.658c-1.309,1.279-3.23,1.92-5.766,1.92h-3.561V67.965h4.017
		c2.374,0,4.18,0.619,5.416,1.859C61.095,71.066,61.714,72.875,61.714,75.256z M60.584,75.297c0-2.129-0.54-3.729-1.622-4.807
		c-1.082-1.074-2.67-1.611-4.766-1.611h-2.734V81.92h2.461C58.363,81.92,60.584,79.711,60.584,75.297z"/>
	<path fill="#FFFFFF" d="M69.342,83.035c-1.607,0-2.859-0.496-3.759-1.482c-0.899-0.986-1.348-2.377-1.348-4.16
		c0-1.764,0.434-3.176,1.302-4.234c0.868-1.062,2.037-1.59,3.508-1.59c1.302,0,2.33,0.452,3.082,1.36
		c0.752,0.906,1.129,2.146,1.129,3.701v0.812h-7.962c0.014,1.518,0.368,2.678,1.062,3.479c0.694,0.803,1.689,1.199,2.985,1.199
		c0.631,0,1.185-0.043,1.663-0.131c0.479-0.088,1.083-0.277,1.815-0.568v0.916c-0.624,0.271-1.2,0.455-1.729,0.553
		C70.562,82.988,69.979,83.035,69.342,83.035z M69.046,72.459c-1.064,0-1.918,0.352-2.562,1.055
		c-0.645,0.701-1.021,1.713-1.13,3.035h6.835c0-1.281-0.278-2.283-0.835-3.006C70.797,72.822,70.029,72.459,69.046,72.459z"/>
	<path fill="#FFFFFF" d="M90.119,82.834V75.58c0-1.076-0.21-1.861-0.631-2.357c-0.42-0.496-1.064-0.741-1.932-0.741
		c-1.137,0-1.973,0.312-2.516,0.938c-0.542,0.623-0.812,1.604-0.812,2.939v6.479h-1.026v-7.559c0-1.863-0.854-2.795-2.562-2.795
		c-1.16,0-2.004,0.338-2.531,1.012c-0.528,0.674-0.795,1.754-0.795,3.24v6.102h-1.006V71.78h0.834l0.213,1.518h0.062
		c0.306-0.551,0.737-0.975,1.304-1.272c0.562-0.306,1.182-0.453,1.858-0.453c1.743,0,2.86,0.651,3.354,1.963h0.041
		c0.358-0.631,0.842-1.115,1.446-1.455c0.606-0.34,1.3-0.508,2.07-0.508c1.207,0,2.11,0.319,2.716,0.967
		c0.605,0.645,0.902,1.668,0.902,3.069v7.229L90.119,82.834L90.119,82.834z"/>
	<path fill="#FFFFFF" d="M103.839,77.289c0,1.807-0.438,3.213-1.313,4.229s-2.078,1.521-3.617,1.521
		c-0.973,0-1.824-0.23-2.562-0.699c-0.736-0.469-1.306-1.141-1.697-2.014c-0.396-0.875-0.59-1.891-0.59-3.031
		c0-1.805,0.438-3.209,1.312-4.215c0.875-1.008,2.073-1.512,3.601-1.512c1.521,0,2.711,0.512,3.575,1.528
		C103.406,74.115,103.839,75.514,103.839,77.289z M95.111,77.289c0,1.52,0.334,2.703,1.002,3.557
		c0.666,0.854,1.613,1.275,2.832,1.275c1.221,0,2.164-0.426,2.832-1.275c0.668-0.854,1.002-2.037,1.002-3.557
		c0-1.523-0.338-2.709-1.012-3.549c-0.678-0.84-1.623-1.26-2.845-1.26c-1.221,0-2.159,0.418-2.821,1.254
		C95.441,74.572,95.111,75.758,95.111,77.289z"/>
</g>
</svg>
