<?xml version="1.0" encoding="utf-8"?>
<!-- Generator: Adobe Illustrator 16.0.0, SVG Export Plug-In . SVG Version: 6.00 Build 0)  -->
<!DOCTYPE svg PUBLIC "-//W3C//DTD SVG 1.1//EN" "http://www.w3.org/Graphics/SVG/1.1/DTD/svg11.dtd">
<svg version="1.1" xmlns="http://www.w3.org/2000/svg" xmlns:xlink="http://www.w3.org/1999/xlink" x="0px" y="0px" width="64px"
	 height="24px" viewBox="0 0 64 24" enable-background="new 0 0 64 24" xml:space="preserve">
<g id="Ebene_1" display="none">
	<path display="inline" fill="#333333" d="M1.217,16.177h2.748v1.136c0,2.516,0.574,3.896,2.297,3.896
		c1.34,0,2.078-0.767,2.078-2.174c0-1.449-0.342-2.324-1.641-3.979l-3.691-4.389C1.709,8.999,0.957,7.331,0.957,5.403
		c0-3.104,1.969-5.291,5.373-5.291c4.129,0,5.346,2.584,5.346,4.949c0,0.998-0.191,1.777-0.383,2.789H8.559V6.743
		c0-2.461-0.67-3.842-2.27-3.842c-1.326,0-1.982,0.807-1.982,2.037c0,1.326,0.424,2.023,1.107,2.926l4.115,4.977
		c1.504,1.955,2.324,3.65,2.324,5.66c0,3.31-2.146,5.388-5.564,5.388c-4.225,0-5.428-2.462-5.428-4.949
		C0.861,17.939,0.984,17.146,1.217,16.177z"/>
	<path display="inline" fill="#333333" d="M16.994,3.106h-3.76V0.317h11.047v2.789h-3.746v20.562h-3.541V3.106z"/>
	<path display="inline" fill="#333333" d="M29.244,0.317h4.074l4.32,23.352h-3.582l-0.644-4.185h-4.266l-0.615,4.185h-3.596
		L29.244,0.317z M33.004,16.818L31.363,5.185h-0.15L29.559,16.82h3.445V16.818z"/>
	<path display="inline" fill="#333333" d="M39.389,16.066V7.796c0-7.041,3.76-7.684,5.988-7.684c3.787,0,5.127,2.242,5.127,4.949
		c0,0.998-0.137,1.777-0.328,2.789h-2.83V6.743c0-2.557-0.711-3.842-2.063-3.842c-1.49,0-2.188,0.93-2.188,3.924v10.582
		c0,2.897,0.67,3.786,2.16,3.786c1.572,0,2.242-1.735,2.242-3.979v-3.049h-1.818v-2.324h5.264v11.826H48.59l-0.383-2.215
		c-0.889,1.736-2.01,2.434-3.596,2.434C42.957,23.889,39.389,23.081,39.389,16.066z"/>
	<path display="inline" fill="#333333" d="M54.209,0.317h8.654v2.789H57.75v6.986h3.951v2.789H57.75v7.998H63v2.789h-8.791V0.317z"
		/>
</g>
<g id="Layer_2" display="none">
	<g display="inline">
		<path d="M11.481,0.62c2.387,0,3.988,0.759,4.803,2.279l0.088,0.154c0.052,0.103,0.153,0.176,0.303,0.221
			c0,0.132-0.162,0.414-0.484,0.845s-0.685,0.717-1.086,0.856c-0.401,0.14-0.68,0.209-0.836,0.209v0.147
			c0.561,0.274,0.966,0.538,1.218,0.791c0.251,0.252,0.549,0.699,0.895,1.341l0.44,0.603c-0.45,0.637-0.675,1.042-0.675,1.213
			c-0.574,0.71-0.988,1.066-1.242,1.066l-0.049,0.037c-0.065,0-0.098,0.04-0.098,0.118h-0.293c0,0.147-0.065,0.221-0.195,0.221
			c-0.646,0.103-1.51,0.154-2.592,0.154L8.732,10.61c-0.574,0-1.344,0.125-2.309,0.375c0,0.049-0.098,0.073-0.293,0.073v-0.037
			l-0.098-0.228c0-0.304,0.359-0.515,1.076-0.632c0.626-0.299,0.939-0.574,0.939-0.824v-3.44h0.196V5.861L8.194,5.817V5.78
			c0.143-0.049,0.225-0.098,0.245-0.147v-0.11c-0.098,0-0.147-0.025-0.147-0.074c0.072,0,0.121-0.063,0.147-0.191H8.39L8.047,5.295
			V4.023c0-0.774-0.183-1.162-0.548-1.162L7.304,2.789c0.052-0.25,0.101-0.375,0.146-0.375C8.175,2.59,8.765,2.678,9.221,2.678
			l2.054-0.11l-0.098,0.449H11.08c-0.62,0-0.93,0.25-0.93,0.75v4.227c0,1.02,0.18,1.529,0.538,1.529
			c0.326,0.152,0.737,0.228,1.233,0.228c0.867,0,1.584-0.274,2.152-0.823c0.13-0.333,0.271-0.622,0.42-0.867l-0.225-0.221
			c0-0.647-0.44-1.257-1.321-1.831c-0.848-0.372-1.487-0.559-1.917-0.559h-0.098V5.369c0.208-0.549,0.473-0.823,0.792-0.823
			c0.417,0.152,0.727,0.228,0.929,0.228c0.581,0,0.972-0.46,1.174-1.382l0.167-0.235c-0.111-0.642-0.753-1.152-1.927-1.529
			C11.312,1.49,10.382,1.431,9.28,1.451C8.178,1.47,6.753,1.693,5.005,2.12c-0.28,0.073-0.481,0.11-0.602,0.11
			s-0.37-0.023-0.749-0.07C3.277,2.113,3.088,2.036,3.088,1.928L2.403,0.73h0.098c0.744,0.299,1.725,0.449,2.944,0.449
			c0.62,0,1.657-0.097,3.111-0.291C10.01,0.695,10.985,0.605,11.481,0.62z"/>
		<path d="M16.714,4.494l1.644,0.029l0.362,0.162l0.215-0.11l0.773-0.022l-0.079,0.213c-0.267,0.044-0.437,0.111-0.508,0.202
			c-0.072,0.091-0.134,0.303-0.186,0.636v0.75l-0.107,0.162h-0.147l-0.293,0.257l0.147,0.14v0.132l0.254,0.088h0.118v0.169
			l0.107,1.639c0.026,0.235,0.147,0.402,0.362,0.5l0.401,0.052v0.22c-0.972-0.034-1.943-0.034-2.915,0l-0.039-0.272
			c0.241-0.024,0.399-0.068,0.474-0.132c0.075-0.063,0.125-0.206,0.152-0.426l-0.039-3.529c-0.098-0.201-0.183-0.338-0.254-0.412
			c-0.072-0.073-0.241-0.11-0.509-0.11L16.714,4.494z"/>
		<path d="M20.667,4.538l0.91,0.007l0.43,0.066l0.489-0.059l0.91,0.007h0.45l0.43,0.118l0.225-0.11h0.098h0.108
			c0.261,0,0.505,0.105,0.733,0.316c0.222,0.21,0.385,0.417,0.489,0.617c0.104,0.206,0.15,0.39,0.137,0.552
			c-0.013,0.167-0.082,0.304-0.205,0.412c-0.124,0.108-0.261,0.179-0.411,0.213l-0.225,0.059l-0.01,0.088l-0.02,0.088L25.46,7.03
			c0.169,0.079,0.342,0.218,0.519,0.419c0.176,0.206,0.287,0.441,0.333,0.706c0.045,0.265-0.016,0.471-0.186,0.618
			c-0.059,0.26-0.169,0.448-0.333,0.566c-0.169,0.123-0.381,0.228-0.636,0.316c-0.254,0.093-0.581,0.135-0.978,0.125l-0.606-0.015
			l-0.636-0.052c-0.431-0.034-0.91-0.044-1.438-0.029l-0.802,0.029l-0.068-0.096l-0.069-0.095l0.196-0.059
			c0.124-0.034,0.208-0.076,0.254-0.125c0.045-0.044,0.082-0.265,0.107-0.662l0.029-0.588l-0.02-0.36l-0.02-0.353l0.108-0.03
			l0.107-0.022l0.039-0.132l0.029-0.125l-0.068-0.015l-0.078-0.015l-0.098-0.044l-0.107-0.037l0.059-0.095l0.049-0.096l-0.02-0.757
			l-0.02-0.757l-0.068-0.14c-0.046-0.088-0.101-0.152-0.167-0.191l-0.107-0.051l-0.186-0.015l-0.195-0.015l0.146-0.154L20.667,4.538
			z M22.574,5.391l-0.02,0.889l-0.107,0.978l0.068,0.801l-0.02,0.889l0.127,0.074l0.127,0.074l0.127,0.081
			c0.085,0.049,0.235,0.088,0.45,0.118L23.65,9.25l0.293,0.007c0.196,0.01,0.378-0.044,0.548-0.162
			c0.169-0.118,0.293-0.238,0.372-0.36c0.072-0.123,0.153-0.245,0.245-0.368l0.02-0.221l-0.157-0.22
			c-0.026-0.147-0.14-0.289-0.342-0.427c-0.208-0.137-0.388-0.272-0.538-0.404c-0.313-0.073-0.544-0.115-0.694-0.125l-0.235-0.015
			l0.02-0.14c0.013-0.088,0.065-0.164,0.157-0.228l0.127-0.096l0.274,0.051c0.183,0.04,0.339,0.044,0.47,0.015
			c0.124-0.024,0.257-0.103,0.401-0.235c0.137-0.127,0.199-0.243,0.186-0.346l-0.02-0.147l0.088-0.235
			c-0.104-0.098-0.264-0.198-0.479-0.301c-0.222-0.103-0.42-0.179-0.597-0.228c-0.137,0.015-0.29,0.012-0.459-0.007
			c-0.17-0.02-0.336,0.029-0.499,0.147L22.574,5.391z"/>
		<path d="M27.006,4.626c0-0.074,0.013-0.122,0.039-0.144c0.026-0.022,0.098-0.033,0.215-0.033c0.02,0,0.062,0,0.127,0
			c0.574,0.098,1.129,0.125,1.667,0.081s0.872-0.071,1.003-0.081h0.127c0.117,0,0.176,0.042,0.176,0.125
			c0,0.108-0.017,0.174-0.049,0.199c-0.032,0.024-0.111,0.039-0.234,0.044c-0.202,0.015-0.349,0.043-0.44,0.084
			c-0.091,0.042-0.153,0.126-0.186,0.254c-0.013,0.063-0.026,0.217-0.04,0.459c-0.013,0.243-0.02,0.597-0.02,1.062
			c0,0.554,0.003,1.016,0.01,1.386c0.007,0.37,0.013,0.617,0.02,0.739c0.007,0.108,0.017,0.191,0.03,0.25
			c0.013,0.059,0.041,0.102,0.083,0.129s0.101,0.044,0.176,0.051c0.075,0.007,0.188,0.011,0.338,0.011
			c0.378,0,0.709-0.011,0.992-0.033c0.284-0.022,0.484-0.055,0.603-0.099c0.104-0.04,0.449-0.302,1.036-0.787
			c0.026-0.103,0.088-0.154,0.187-0.154c0.254,0,0.381,0.054,0.381,0.162c0,0.044-0.101,0.167-0.303,0.368
			c-0.202,0.201-0.318,0.357-0.348,0.47s-0.061,0.218-0.093,0.316c-0.02,0.064-0.036,0.115-0.049,0.155
			c-0.014,0.039-0.028,0.068-0.044,0.088c-0.017,0.02-0.044,0.031-0.083,0.033S32.25,9.765,32.21,9.765c-0.02,0-0.042,0-0.068,0
			c-0.02,0-0.052,0-0.098,0s-0.424-0.016-1.135-0.048c-0.71-0.032-1.35-0.048-1.917-0.048c-0.287,0-0.517,0.014-0.689,0.041
			c-0.173,0.027-0.372,0.042-0.597,0.044c-0.225,0.002-0.416,0.006-0.572,0.011h-0.059c-0.091,0-0.145-0.01-0.161-0.03
			c-0.017-0.02-0.024-0.073-0.024-0.162c0-0.063,0.013-0.105,0.039-0.125c0.026-0.02,0.107-0.034,0.245-0.044
			c0.137-0.01,0.243-0.029,0.318-0.059c0.075-0.029,0.137-0.078,0.186-0.147c0.049-0.068,0.093-0.225,0.132-0.47l0.01-1.617
			l0.029-0.25l0.323,0.022l0.039-0.243l-0.245-0.14l0.118-0.228l-0.235-0.419c-0.02-0.446-0.045-0.72-0.078-0.823
			s-0.082-0.162-0.147-0.176c-0.065-0.015-0.169-0.027-0.313-0.037c-0.13-0.005-0.213-0.012-0.25-0.022
			c-0.036-0.01-0.054-0.037-0.054-0.081V4.626z"/>
		<path d="M33.287,4.494l1.643,0.029l0.362,0.162l0.215-0.11l0.773-0.022l-0.078,0.213c-0.268,0.044-0.438,0.111-0.509,0.202
			c-0.072,0.091-0.134,0.303-0.187,0.636v0.75l-0.107,0.162h-0.146L34.96,6.773l0.146,0.14v0.132l0.254,0.088h0.117v0.169
			l0.108,1.639c0.025,0.235,0.146,0.402,0.361,0.5l0.401,0.052v0.22c-0.972-0.034-1.943-0.034-2.915,0l-0.039-0.272
			c0.241-0.024,0.399-0.068,0.475-0.132c0.074-0.063,0.125-0.206,0.151-0.426l-0.039-3.529c-0.098-0.201-0.183-0.338-0.255-0.412
			c-0.071-0.073-0.241-0.11-0.508-0.11L33.287,4.494z"/>
		<path d="M36.955,7.346l0.177-0.265c0-0.176,0.064-0.434,0.195-0.772c0.124-0.338,0.349-0.644,0.675-0.918s0.708-0.495,1.145-0.662
			c0.443-0.167,0.757-0.243,0.939-0.228l0.499,0.044l0.205,0.059c0.137-0.034,0.264-0.059,0.382-0.074
			c0.137-0.015,0.225,0.017,0.264,0.096c0.117,0.015,0.212-0.005,0.284-0.059c0.084,0.015,0.14,0.022,0.166,0.022h0.039h0.039
			c0.013,0,0.052-0.005,0.117-0.015c0.065-0.01,0.134-0.022,0.205-0.037c0.06-0.015,0.114-0.029,0.167-0.044
			c0.059-0.01,0.095-0.015,0.107-0.015h0.01H42.6c0.026,0,0.059,0.01,0.098,0.029c0.033,0.024,0.049,0.051,0.049,0.081v0.044v0.015
			c0,0.015-0.003,0.034-0.01,0.059c-0.013,0.03-0.065,0.096-0.156,0.199c0.098,0.073,0.127,0.145,0.088,0.213L42.6,5.222
			l0.049,0.074l0.039,0.081l0.059,0.25c0.033,0.167,0.056,0.268,0.068,0.302c0.007,0.039,0.01,0.071,0.01,0.095V6.06l-0.068,0.066
			c-0.039,0.04-0.11,0.071-0.215,0.096l-0.156,0.037h-0.049c-0.053,0-0.092-0.027-0.118-0.081c-0.02-0.039-0.049-0.105-0.088-0.198
			c-0.039-0.088-0.085-0.184-0.137-0.287c-0.053-0.098-0.137-0.186-0.254-0.265c-0.131-0.083-0.301-0.154-0.509-0.213
			c-0.209-0.059-0.408-0.11-0.597-0.154l-0.509-0.022l-0.313,0.088c-0.273,0-0.561,0.14-0.86,0.419
			c-0.313,0.294-0.47,0.607-0.47,0.941v0.507l-0.088,0.353c0.059,0.211,0.144,0.454,0.254,0.728c0.111,0.284,0.261,0.524,0.45,0.72
			c0.195,0.201,0.421,0.343,0.675,0.426c0.235,0.079,0.457,0.093,0.665,0.044l0.323-0.074h0.254c0.144,0,0.339-0.042,0.587-0.125
			c0.235-0.078,0.443-0.169,0.626-0.272c0.177-0.098,0.414-0.225,0.715-0.382l0.567-0.287l-0.226,0.353
			c-0.124,0.186-0.326,0.375-0.606,0.566c-0.28,0.201-0.551,0.363-0.812,0.485c-0.274,0.132-0.519,0.208-0.733,0.228
			c-0.196,0.02-0.376,0.066-0.538,0.14c-0.189,0.088-0.343,0.132-0.46,0.132h-0.156h-0.304c-0.222,0-0.516-0.064-0.88-0.191
			c-0.372-0.118-0.627-0.238-0.764-0.36l-0.205-0.169l0.039-0.162l0.039-0.154l-0.068-0.162l-0.068-0.14l-0.206,0.015l-0.303,0.029
			l-0.156-0.382c-0.099-0.25-0.118-0.48-0.059-0.691L36.955,7.346z"/>
		<path d="M51.179,4.494v0.14v0.147h-0.265h-0.273l-0.157,0.096c-0.104,0.068-0.169,0.184-0.195,0.345l-0.039,0.25l-0.088,0.029
			l-0.117-0.095l-0.059,0.162l-0.089,0.037l0.06,0.132l0.039,0.213l0.088,0.044c0.039,0.088,0.039,0.149,0,0.184l-0.059,0.044
			l-0.068,0.051l-0.06,0.052l0.089,0.059l0.059,0.132l0.117-0.007l0.088,0.066v0.331v0.331L50.19,7.589l0.059,0.309L50.19,8.324
			l0.059,0.382l0.127,0.22c0.078,0.147,0.206,0.27,0.382,0.368l0.254,0.154h0.138h0.137l-0.049,0.132l-0.049,0.132l-1.585,0.015
			l-0.802,0.007l-0.793,0.007l0.117-0.066l-0.117-0.074V9.537V9.471l0.098-0.007l0.089-0.007l0.098-0.007
			c0.078,0.04,0.166,0.052,0.264,0.037V9.353l0.088-0.044c0.059-0.029,0.095-0.068,0.107-0.118l0.021-0.081l0.02-0.074l0.02-0.073
			l-0.01-0.368l-0.01-0.375l-0.01-0.368l-0.01-0.368l-0.598-0.11l-0.606-0.11l-0.597-0.11l-0.606-0.11l-0.02,0.154l-0.137,0.118
			L46.16,7.538l0.02,0.162l0.01,0.213l-0.127,0.242l-0.02,0.235l-0.078,0.243l-0.235,0.221l-0.195,0.198l-0.264,0.25
			c-0.157,0.147-0.313,0.277-0.47,0.39l-0.226,0.162l-0.234,0.169c-0.156,0.113-0.313,0.196-0.47,0.25l-0.225,0.088l-0.235,0.081
			c-0.156,0.059-0.388,0.088-0.694,0.088h-0.46l0.235-0.206l0.215-0.015l0.206-0.015l0.215-0.015
			c0.137-0.01,0.271-0.066,0.401-0.169l0.195-0.154l0.195-0.147c0.131-0.103,0.251-0.255,0.362-0.456l0.156-0.301l0.166-0.294
			c0.104-0.201,0.17-0.436,0.196-0.706l0.049-0.404l0.127-0.353l-0.049-0.448l-0.01-0.066l-0.195-0.103l-0.099-0.088
			c-0.071-0.054-0.101-0.11-0.088-0.169l0.02-0.081l0.02-0.088c0.014-0.054,0.068-0.078,0.167-0.074l0.146,0.008l0.146,0.007
			L45.182,6.2l0.099-0.125l0.098-0.088l0.088-0.169c0.144-0.069,0.248-0.171,0.312-0.309l0.206-0.184l0.215-0.176
			c0.137-0.123,0.277-0.194,0.421-0.213l0.225-0.206l0.216-0.118c0.143-0.079,0.283-0.118,0.42-0.118h0.196h0.205l0.283,0.066
			l0.686-0.066l0.694,0.066l0.86-0.066H51.179z M47.608,5.104L47.324,5.17l-0.107,0.184c-0.131,0.083-0.231,0.174-0.304,0.272
			l-0.107,0.147L46.698,5.92c-0.072,0.098-0.088,0.171-0.049,0.22l0.059,0.066l0.059,0.073l0.059,0.074l0.206,0.037l0.117,0.147
			l0.205,0.015c0.195-0.034,0.378-0.032,0.548,0.007l0.254,0.059L48.4,6.685l0.254,0.059V6.317l0.088-0.427l-0.088-0.419V5.045
			l-0.215-0.015l-0.205-0.022l-0.216-0.015C47.875,4.984,47.738,5.021,47.608,5.104z"/>
		<path d="M51.913,4.626c0-0.074,0.013-0.122,0.039-0.144c0.025-0.022,0.098-0.033,0.215-0.033c0.02,0,0.062,0,0.127,0
			c0.574,0.098,1.13,0.125,1.668,0.081s0.872-0.071,1.003-0.081h0.127c0.117,0,0.176,0.042,0.176,0.125
			c0,0.108-0.016,0.174-0.049,0.199c-0.032,0.024-0.11,0.039-0.234,0.044c-0.202,0.015-0.349,0.043-0.44,0.084
			c-0.091,0.042-0.153,0.126-0.186,0.254c-0.014,0.063-0.026,0.217-0.039,0.459c-0.014,0.243-0.02,0.597-0.02,1.062
			c0,0.554,0.003,1.016,0.01,1.386c0.006,0.37,0.013,0.617,0.02,0.739c0.006,0.108,0.016,0.191,0.029,0.25
			c0.013,0.059,0.04,0.102,0.083,0.129c0.042,0.027,0.101,0.044,0.176,0.051s0.188,0.011,0.338,0.011
			c0.378,0,0.709-0.011,0.992-0.033c0.284-0.022,0.484-0.055,0.603-0.099c0.104-0.04,0.449-0.302,1.036-0.787
			c0.026-0.103,0.088-0.154,0.187-0.154c0.254,0,0.381,0.054,0.381,0.162c0,0.044-0.101,0.167-0.303,0.368
			c-0.202,0.201-0.318,0.357-0.348,0.47s-0.061,0.218-0.093,0.316c-0.02,0.064-0.036,0.115-0.049,0.155
			c-0.014,0.039-0.028,0.068-0.044,0.088c-0.017,0.02-0.044,0.031-0.083,0.033s-0.078,0.004-0.118,0.004c-0.02,0-0.042,0-0.068,0
			c-0.02,0-0.052,0-0.098,0s-0.424-0.016-1.135-0.048s-1.35-0.048-1.917-0.048c-0.287,0-0.517,0.014-0.689,0.041
			s-0.372,0.042-0.597,0.044c-0.226,0.002-0.416,0.006-0.572,0.011h-0.059c-0.092,0-0.146-0.01-0.162-0.03
			c-0.016-0.02-0.024-0.073-0.024-0.162c0-0.063,0.014-0.105,0.039-0.125c0.026-0.02,0.108-0.034,0.245-0.044
			s0.243-0.029,0.317-0.059c0.075-0.029,0.138-0.078,0.187-0.147c0.049-0.068,0.093-0.225,0.132-0.47l0.01-1.617l0.029-0.25
			l0.323,0.022l0.039-0.243l-0.245-0.14l0.117-0.228l-0.234-0.419c-0.02-0.446-0.046-0.72-0.078-0.823
			c-0.033-0.103-0.082-0.162-0.146-0.176c-0.065-0.015-0.17-0.027-0.313-0.037c-0.131-0.005-0.214-0.012-0.249-0.022
			c-0.036-0.01-0.054-0.037-0.054-0.081V4.626z"/>
		<path d="M1.973,11.875c0.424-0.642,0.849-1.009,1.276-1.103s0.99-0.044,1.688,0.147c0.698,0.196,1.382,0.618,2.054,1.265
			c0.671,0.647,1.288,1.485,1.849,2.514l0.206,0.559l-0.47,0.302l0.548,0.419l0.558,0.257l-0.02,0.39l0.43,0.382l-0.01,0.39
			l0.431,0.383c0.561,1.029,0.894,1.635,0.998,1.815c0.45-0.75,1.109-1.859,1.976-3.33l0.665-1.109
			c0.353-0.599,0.626-1.096,0.822-1.493c0.196-0.392,0.352-0.767,0.47-1.124c0.032-0.079,0.06-0.13,0.083-0.155
			s0.073-0.037,0.152-0.037h0.117l0.812,0.007l0.029,0.11L16.538,12.5l0.245,0.037l0.196-0.037l0.029-0.096l0.284-0.044h0.46
			c0.619-0.01,1.021-0.022,1.203-0.037h0.205c0.079,0,0.129,0.016,0.152,0.048c0.023,0.032,0.034,0.097,0.034,0.195
			c0,0.122-0.003,0.209-0.01,0.261s-0.017,0.085-0.029,0.1c-0.02,0.02-0.062,0.036-0.127,0.051
			c-0.065,0.015-0.195,0.032-0.391,0.052c-0.241,0.029-0.427,0.065-0.558,0.106c-0.13,0.042-0.227,0.125-0.289,0.25
			s-0.103,0.304-0.122,0.537c-0.02,0.232-0.104,0.469-0.254,0.709c0.15,0.274,0.15,0.542,0,0.802l0.225,0.463l0.02,1.132
			l-0.068,2.021l-0.069,0.463l0.079,0.287l-0.206,0.529c0.215,0.279,0.339,0.506,0.372,0.68c0.033,0.175,0.095,0.308,0.186,0.401
			c0.091,0.093,0.213,0.157,0.367,0.194s0.357,0.061,0.611,0.07c0.183,0,0.289,0.008,0.318,0.025s0.044,0.102,0.044,0.254
			c0,0.146-0.01,0.237-0.029,0.271s-0.062,0.052-0.127,0.052h-0.333c-0.137,0-0.302-0.003-0.494-0.008s-0.416-0.031-0.67-0.08
			c-0.254-0.05-0.502-0.074-0.744-0.074c-0.202,0.089-0.411,0.076-0.626-0.036c-0.117,0.112-0.284,0.112-0.499,0
			c-0.411-0.029-0.689-0.007-0.836,0.069c-0.146,0.076-0.334,0.116-0.562,0.121c-0.229,0.005-0.408,0.008-0.538,0.008h-0.127
			c-0.104,0-0.166-0.013-0.186-0.037s-0.029-0.125-0.029-0.301c0-0.118,0.015-0.191,0.044-0.221s0.086-0.049,0.171-0.059
			c0.372-0.02,0.662-0.051,0.871-0.093c0.209-0.041,0.359-0.137,0.45-0.286s0.163-0.519,0.215-1.106v-0.787v-0.544v-1.507
			l0.078-0.25l0.235-0.125l-0.147-0.301l-0.176-0.133v-0.286l0.029-1.198l0.029-0.39l-0.147,0.359l-0.235,0.596l-0.489,0.875
			l-0.822,1.39l-0.724,1.169c-0.385,0.627-0.71,1.18-0.978,1.657s-0.443,0.768-0.528,0.867c-0.084,0.101-0.363,0.118-0.836,0.052
			c-0.473-0.066-0.749-0.159-0.827-0.279c-0.079-0.12-0.222-0.379-0.431-0.775c-0.208-0.397-0.479-0.908-0.812-1.533
			c-0.333-0.624-0.77-1.427-1.311-2.407l-0.215-0.757l-0.313-0.243l-0.059-0.521l-0.245-0.354l-0.156-0.33l0.029,0.346l-0.088,0.234
			l0.088,0.199l-0.088,0.367l-0.01,0.154l0.01,0.133l0.088,0.088l-0.176,0.265l0.157,0.191l0.01,0.573l-0.069,0.654L6.14,18.543
			c0.117,0.735,0.186,1.309,0.206,1.72c0.02,0.412,0.084,0.72,0.195,0.923s0.274,0.331,0.489,0.382
			c0.215,0.052,0.509,0.078,0.88,0.078c0.202,0.01,0.303,0.08,0.303,0.213c0,0.187-0.013,0.303-0.039,0.349
			c-0.026,0.047-0.085,0.07-0.176,0.07H7.774c-0.124,0-0.272-0.003-0.445-0.008s-0.352-0.01-0.538-0.015
			c-0.186-0.005-0.305-0.107-0.357-0.309C5.944,22,5.697,22.06,5.69,22.123c-0.065,0.083-0.212,0.021-0.44-0.184
			c-0.229,0.205-0.453,0.311-0.675,0.315s-0.429,0.01-0.621,0.015c-0.193,0.005-0.338,0.008-0.436,0.008
			c-0.052,0.015-0.107,0.021-0.166,0.021c-0.053,0-0.092,0-0.118,0c-0.072,0-0.116-0.018-0.132-0.055
			c-0.017-0.037-0.024-0.139-0.024-0.305c0-0.118,0.013-0.189,0.039-0.214c0.026-0.024,0.088-0.041,0.186-0.051
			c0.47-0.045,0.797-0.111,0.983-0.202c0.186-0.091,0.321-0.244,0.406-0.46c0.059-0.117,0.109-0.259,0.152-0.423
			c0.042-0.164,0.151-0.564,0.328-1.202l-0.079-1.632l0.049-1.353l0.049-1.234l0.02-0.279c0.013-0.334,0.02-0.56,0.02-0.677
			c0-0.24,0.005-0.444,0.015-0.614c0.01-0.169-0.065-0.395-0.225-0.676c-0.16-0.282-0.561-0.569-1.203-0.86
			C3.174,11.771,2.56,11.708,1.973,11.875z"/>
		<path d="M18.75,15.786l1.644,0.029l0.362,0.162l0.215-0.11l0.773-0.022l-0.079,0.213c-0.267,0.045-0.437,0.112-0.508,0.202
			c-0.072,0.091-0.134,0.303-0.186,0.637v0.749l-0.107,0.162h-0.147l-0.293,0.257l0.147,0.141v0.132l0.254,0.088h0.118v0.169
			l0.107,1.64c0.026,0.235,0.147,0.402,0.362,0.5l0.401,0.052v0.221c-0.972-0.034-1.943-0.034-2.915,0l-0.039-0.272
			c0.241-0.024,0.399-0.068,0.474-0.132c0.075-0.064,0.125-0.206,0.152-0.427l-0.039-3.528c-0.098-0.201-0.183-0.339-0.254-0.412
			s-0.241-0.11-0.509-0.11L18.75,15.786z"/>
		<path d="M21.528,15.095l0.303-0.132c0.196-0.083,0.427-0.14,0.695-0.169c0.261-0.024,0.57-0.013,0.929,0.036
			c0.352,0.05,0.694,0.152,1.027,0.309c0.333,0.157,0.528,0.297,0.587,0.42l0.254,0.146v0.169l-0.01,0.169l0.352,0.17l0.353,0.169
			l0.176,0.169c0.111,0.112,0.277,0.351,0.499,0.713l0.499,0.588l0.557,0.779l0.548,0.779l0.049-0.022l0.049-0.015l-0.02-1.286
			l-0.02-1.279l-0.059-0.221c-0.045-0.142-0.107-0.27-0.186-0.382c-0.085-0.112-0.186-0.196-0.303-0.25
			c-0.118-0.054-0.215-0.086-0.293-0.096l-0.127-0.015V15.72v-0.117l0.059-0.037l0.059-0.037l0.469,0.015
			c0.307,0.011,0.691,0.016,1.154,0.016h0.685l0.127,0.109l0.117,0.11l-0.068,0.081l-0.078,0.089l-0.206-0.052
			c-0.137-0.034-0.254,0.02-0.352,0.161c-0.104,0.143-0.157,0.285-0.157,0.427v0.221l-0.059,1.919L29.08,20.55l0.059,0.213
			c0.039,0.147,0.163,0.338,0.372,0.573c0.202,0.235,0.392,0.407,0.567,0.515c0.17,0.113,0.401,0.169,0.694,0.169
			c0.287,0,0.509-0.051,0.666-0.154l0.234-0.154l-0.068,0.258c-0.046,0.176-0.124,0.323-0.235,0.44
			c-0.11,0.123-0.3,0.187-0.567,0.191c-0.268,0.01-0.551-0.005-0.851-0.044c-0.3-0.034-0.604-0.133-0.91-0.294
			c-0.313-0.162-0.59-0.351-0.832-0.566s-0.398-0.377-0.47-0.485l-0.107-0.154l0.039-0.125l0.098-0.059l0.068-0.125l-0.059-0.052
			l0.02-0.051l0.01-0.052l0.02-0.037l0.02-0.029v-0.065v-0.06l-0.108-0.051l-0.107-0.045h-0.049h-0.049h-0.049h-0.049l0.02,0.045
			l0.01,0.051v0.029v0.03l-0.01,0.044l-0.02,0.044l-0.039,0.021l-0.039,0.022l-0.059,0.037l-0.068,0.044l-0.45-0.706
			c-0.3-0.466-0.577-0.865-0.832-1.198l-0.381-0.492l-0.245-0.309l-0.235-0.302l-0.244-0.309L24.6,17.058l0.059,1.544l0.02,0.779
			l0.029,0.771l0.039,0.096l0.029,0.096c0.046,0.133,0.134,0.226,0.264,0.279c0.124,0.059,0.238,0.091,0.342,0.096l0.157,0.015
			l-0.029,0.14l-0.039,0.14l-0.519-0.015c-0.346-0.01-0.737-0.005-1.174,0.015l-0.665,0.029v-0.088v-0.088l0.137-0.052
			c0.091-0.034,0.173-0.081,0.245-0.14c0.065-0.054,0.13-0.096,0.196-0.125c0.059-0.029,0.078-0.098,0.059-0.206l-0.039-0.154
			l0.01-1.029l0.01-1.036v-1.029l0.01-1.029l-0.088-0.088c-0.059-0.055-0.157-0.143-0.293-0.265
			c-0.137-0.123-0.261-0.229-0.372-0.316c-0.117-0.083-0.238-0.149-0.362-0.198c-0.13-0.049-0.251-0.071-0.362-0.066
			c-0.118,0.01-0.215,0.039-0.293,0.088s-0.121,0.081-0.127,0.096l-0.02,0.022l-0.146-0.125L21.528,15.095z"/>
		<path d="M30.625,15.786l1.644,0.029l0.362,0.162l0.215-0.11l0.773-0.022l-0.078,0.213c-0.268,0.045-0.438,0.112-0.509,0.202
			c-0.072,0.091-0.134,0.303-0.187,0.637v0.749l-0.107,0.162h-0.146l-0.293,0.257l0.146,0.141v0.132l0.254,0.088h0.117v0.169
			l0.108,1.64c0.025,0.235,0.146,0.402,0.361,0.5l0.401,0.052v0.221c-0.972-0.034-1.943-0.034-2.915,0l-0.039-0.272
			c0.241-0.024,0.399-0.068,0.474-0.132c0.075-0.064,0.126-0.206,0.152-0.427l-0.039-3.528c-0.098-0.201-0.183-0.339-0.254-0.412
			c-0.072-0.073-0.242-0.11-0.51-0.11L30.625,15.786z"/>
		<path d="M39.724,15.434c0.071,0.489,0.267,1.028,0.587,1.617l-0.548,0.021c-0.124-0.235-0.362-0.435-0.714-0.599
			c-0.353-0.164-0.698-0.283-1.037-0.356c-0.34-0.074-0.667-0.087-0.983-0.041c-0.316,0.047-0.555,0.156-0.714,0.327
			c-0.16,0.172-0.166,0.34-0.02,0.504s0.421,0.333,0.821,0.507c0.401,0.174,0.876,0.344,1.424,0.508s0.991,0.388,1.33,0.672
			c0.339,0.285,0.563,0.586,0.675,0.904c0.111,0.319,0.109,0.599-0.005,0.839s-0.321,0.469-0.621,0.687
			c-0.3,0.219-0.682,0.399-1.145,0.544c-0.463,0.146-0.906,0.228-1.33,0.247s-0.801,0.006-1.13-0.041
			c-0.329-0.046-0.688-0.17-1.076-0.371s-0.643-0.401-0.763-0.603c-0.121-0.201-0.127-0.407-0.02-0.618
			c0.107-0.21,0.288-0.393,0.543-0.547c0.254-0.154,0.503-0.255,0.748-0.302c0.244-0.047,0.49-0.06,0.738-0.04
			c-0.026,0.255-0.046,0.49-0.059,0.705c-0.287-0.054-0.533-0.061-0.738-0.021c-0.206,0.039-0.346,0.149-0.421,0.33
			c-0.075,0.182-0.037,0.369,0.112,0.562c0.15,0.194,0.353,0.326,0.606,0.397c0.255,0.071,0.547,0.121,0.876,0.15
			s0.651,0.016,0.968-0.04c0.316-0.057,0.608-0.172,0.876-0.346s0.437-0.36,0.509-0.559c0.071-0.198,0.052-0.413-0.059-0.644
			c-0.111-0.23-0.284-0.392-0.519-0.485l-0.166-0.205l-0.01-0.199l-0.177-0.213c-0.209,0.093-0.28,0.201-0.215,0.323l-0.499-0.11
			c-0.998-0.294-1.66-0.536-1.985-0.728c-0.326-0.191-0.557-0.387-0.69-0.588s-0.158-0.42-0.073-0.658
			c0.085-0.237,0.216-0.452,0.392-0.644c0.176-0.19,0.395-0.352,0.655-0.481s0.507-0.212,0.738-0.246s0.535-0.052,0.91-0.052
			s0.696,0.009,0.964,0.026C38.748,15.586,39.162,15.541,39.724,15.434z"/>
		<path d="M41.436,15.749l1.281,0.096l1.614-0.044l1.564-0.029l0.715,0.117l0.841-0.14c-0.046,0.299-0.058,0.533-0.034,0.702
			c0.022,0.169,0.061,0.323,0.112,0.463c0.053,0.14,0.131,0.267,0.235,0.379l-0.44,0.25c-0.196-0.23-0.364-0.43-0.504-0.599
			c-0.141-0.17-0.3-0.291-0.479-0.364s-0.366-0.152-0.562-0.235c-0.195-0.083-0.312-0.149-0.352-0.198l-0.235-0.044h-0.029
			l-0.029,0.021v0.022l0.029,0.934v0.096l-0.029,0.051l0.029,0.169h-0.029v0.081l0.059,0.066v0.691l-0.117,0.434l-0.039,0.073
			L44.908,18.8v0.096l0.068,0.044l0.098,0.052h0.029l0.029,0.073l0.029,0.14l-0.186,0.133l0.029,0.051v0.022
			c-0.039,0.099-0.059,0.15-0.059,0.158c0,0.007,0.02,0.05,0.059,0.129l0.029,0.029l0.225,0.198l-0.127,0.125
			c0.039,0.289,0.119,0.472,0.239,0.548c0.121,0.076,0.212,0.119,0.274,0.129c0.062,0.01,0.256,0.029,0.582,0.059v0.265
			c-1.161,0-1.833,0-2.015,0c-0.184,0-0.306,0-0.367,0c-0.062,0-0.448,0-1.159,0v-0.265c0.215,0,0.388-0.018,0.519-0.052
			c0.13-0.034,0.222-0.092,0.273-0.173c0.053-0.081,0.068-0.219,0.049-0.415l0.059-0.956v-0.544l0.04-0.515l-0.04-0.073v-0.073
			l0.069-0.066l-0.196-0.25l0.098-0.272l-0.059-0.338l0.029-0.815h-0.42c-0.255,0-0.457,0.021-0.606,0.065
			c-0.15,0.045-0.291,0.127-0.421,0.247c-0.131,0.12-0.255,0.253-0.372,0.4c-0.117,0.146-0.241,0.336-0.371,0.565l-0.284-0.169
			C41.243,16.842,41.37,16.308,41.436,15.749z"/>
		<path d="M51.247,15.838c0.828,0.02,1.405,0.062,1.731,0.128c0.326,0.066,0.564,0.146,0.715,0.239l0.225,0.14l0.225,0.147
			c0.15,0.093,0.251,0.188,0.304,0.286l0.078,0.14l0.078,0.147c0.053,0.098,0.059,0.201,0.02,0.309l-0.049,0.161l-0.059,0.162
			c-0.039,0.108-0.104,0.213-0.195,0.316l-0.138,0.154l-0.146,0.154c-0.091,0.103-0.186,0.174-0.283,0.213l-0.147,0.052
			l-0.146,0.059l-0.146,0.059v0.03v0.021v0.059l0.176,0.081c0.117,0.059,0.358,0.196,0.725,0.412
			c0.364,0.216,0.668,0.443,0.909,0.684c0.234,0.245,0.535,0.517,0.9,0.815c0.358,0.3,0.7,0.505,1.026,0.618
			c0.326,0.112,0.613,0.169,0.861,0.169s0.453-0.018,0.616-0.052l0.234-0.044l0.362-0.088c0.241-0.06,0.372-0.052,0.392,0.021
			l0.02,0.118l0.01,0.11c0.006,0.078-0.059,0.125-0.196,0.14l-0.215,0.021l-0.088,0.029c-0.059,0.024-0.245,0.062-0.558,0.11
			c-0.319,0.049-0.701,0.063-1.145,0.044c-0.443-0.015-0.809-0.056-1.096-0.125c-0.287-0.063-0.77-0.281-1.447-0.654
			c-0.679-0.372-1.207-0.718-1.585-1.036c-0.379-0.318-0.743-0.62-1.096-0.904c-0.353-0.279-0.623-0.48-0.812-0.603l-0.294-0.177
			V18.22l1.008,0.065c0.287-0.02,0.482-0.067,0.587-0.143c0.104-0.076,0.183-0.222,0.234-0.438c0.053-0.216,0.048-0.46-0.015-0.731
			c-0.062-0.272-0.205-0.464-0.431-0.574c-0.225-0.109-0.532-0.175-0.924-0.194c-0.516,0.034-0.825,0.187-0.93,0.456l0.039,3.491
			c0.099,0.245,0.219,0.396,0.362,0.452c0.144,0.057,0.333,0.122,0.567,0.195v0.228l-3.209,0.052l-0.029-0.39
			c0.261,0,0.429-0.047,0.504-0.14s0.132-0.191,0.172-0.294c0.039-0.104,0.059-0.818,0.059-2.146l0.293-0.089L48.979,17.8
			l-0.039-0.499l-0.05-0.508c-0.02-0.299-0.215-0.495-0.587-0.588l0.089-0.419C49.48,15.859,50.433,15.877,51.247,15.838z"/>
		<path d="M59.542,20.108c0,0.216,0.049,0.361,0.147,0.438c0.098,0.076,0.225,0.119,0.381,0.129c0.117,0.01,0.202,0.021,0.255,0.033
			c0.052,0.012,0.078,0.038,0.078,0.077c0,0.01-0.01,0.026-0.029,0.051c-0.02,0.025-0.043,0.05-0.068,0.074
			c-0.026,0.024-0.059,0.049-0.099,0.073c-0.039,0.024-0.088,0.037-0.146,0.037c-0.078,0-0.158-0.003-0.239-0.008
			c-0.082-0.005-0.212-0.012-0.392-0.021s-0.334-0.016-0.465-0.016c-0.626,0.021-0.996,0.032-1.11,0.037
			c-0.113,0.005-0.21,0.008-0.288,0.008c-0.117,0-0.176-0.032-0.176-0.096c0-0.024,0.021-0.065,0.063-0.121
			c0.042-0.057,0.103-0.097,0.181-0.122c0.092-0.034,0.166-0.068,0.225-0.103c0.06-0.034,0.106-0.095,0.143-0.18
			c0.035-0.086,0.066-0.438,0.093-1.056c0-0.068-0.009-0.133-0.024-0.194c-0.017-0.062-0.043-0.129-0.078-0.202
			c-0.036-0.073-0.312-0.497-0.827-1.271l0.187-0.104l0.127-0.029l0.039-0.029L57.4,17.484l-0.068-0.044l0.049-0.029l0.029-0.066
			l-0.039-0.081l-0.049,0.022l-0.177,0.036l-0.254-0.029l-0.176-0.242l-0.187-0.243c-0.124-0.156-0.227-0.281-0.308-0.375
			c-0.082-0.093-0.152-0.162-0.211-0.209s-0.112-0.076-0.161-0.089c-0.049-0.012-0.106-0.021-0.171-0.025
			c-0.078-0.005-0.132-0.017-0.162-0.037c-0.029-0.02-0.044-0.034-0.044-0.044c0-0.015,0.01-0.036,0.029-0.065
			c0.02-0.03,0.05-0.06,0.089-0.089s0.083-0.055,0.132-0.077c0.049-0.021,0.1-0.033,0.151-0.033c0.092,0,0.202,0.04,0.333,0.118
			l0.342-0.052c0.17-0.015,0.355-0.022,0.558-0.022c0.3,0,0.574-0.007,0.822-0.021c0.247-0.015,0.414-0.022,0.498-0.022
			c0.092,0,0.15,0.012,0.177,0.033c0.025,0.022,0.039,0.053,0.039,0.092c0,0.024-0.024,0.056-0.073,0.092
			c-0.049,0.037-0.083,0.075-0.103,0.114c-0.021,0.02-0.06,0.034-0.118,0.044s-0.112,0.023-0.161,0.041
			c-0.049,0.017-0.097,0.045-0.142,0.084c-0.046,0.039-0.068,0.099-0.068,0.177c0,0.049,0.015,0.109,0.044,0.18
			c0.029,0.071,0.084,0.177,0.166,0.316c0.081,0.14,0.197,0.323,0.348,0.552c0.149,0.228,0.332,0.501,0.548,0.819l0.303-0.463
			l0.46-0.647c0.183-0.26,0.29-0.428,0.322-0.503c0.033-0.076,0.049-0.156,0.049-0.239c0-0.122-0.039-0.211-0.117-0.265
			s-0.219-0.081-0.42-0.081c-0.046,0-0.094-0.004-0.143-0.011c-0.049-0.008-0.073-0.026-0.073-0.056c0-0.01,0.014-0.029,0.039-0.059
			c0.026-0.029,0.058-0.06,0.093-0.092c0.036-0.032,0.075-0.062,0.118-0.088c0.042-0.027,0.086-0.041,0.132-0.041
			c0.032,0,0.066,0.003,0.103,0.008s0.134,0.012,0.294,0.021c0.159,0.011,0.32,0.015,0.483,0.015c0.482-0.01,0.771-0.02,0.866-0.029
			s0.164-0.015,0.21-0.015c0.059,0,0.111,0.013,0.156,0.037c0.046,0.024,0.069,0.047,0.069,0.066c0,0.024-0.026,0.063-0.079,0.117
			c-0.052,0.054-0.113,0.094-0.186,0.118c-0.104,0.039-0.192,0.078-0.264,0.117c-0.072,0.039-0.148,0.101-0.23,0.184
			c-0.081,0.084-0.233,0.277-0.454,0.581l-0.509,0.434l-0.099,0.427c-0.267,0.372-0.435,0.615-0.503,0.728s-0.113,0.201-0.133,0.265
			s-0.029,0.132-0.029,0.206V20.108z"/>
	</g>
</g>
<g id="Layer_3">
	<g>
		<path d="M18.911,2.244c4.998,0,8.35,1.55,10.057,4.651l0.185,0.315c0.109,0.21,0.32,0.36,0.635,0.45
			c0,0.27-0.338,0.845-1.014,1.726c-0.676,0.88-1.434,1.463-2.273,1.748s-1.423,0.428-1.751,0.428v0.3
			c1.174,0.561,2.024,1.097,2.55,1.613c0.525,0.516,1.15,1.428,1.874,2.738l0.922,1.23c-0.942,1.301-1.413,2.125-1.413,2.477
			c-1.202,1.449-2.069,2.176-2.602,2.176l-0.103,0.074c-0.136,0-0.205,0.08-0.205,0.24h-0.614c0,0.301-0.137,0.449-0.41,0.449
			c-1.352,0.211-3.162,0.316-5.428,0.316l-6.165-0.541c-1.202,0-2.813,0.256-4.834,0.766c0,0.1-0.205,0.15-0.615,0.15v-0.076
			L7.502,23.01c0-0.619,0.75-1.051,2.253-1.289c1.311-0.611,1.966-1.172,1.966-1.682v-7.021h0.41v-0.076l-0.103-0.09v-0.074
			c0.3-0.1,0.471-0.201,0.512-0.3v-0.225c-0.205,0-0.307-0.05-0.307-0.15c0.15,0,0.252-0.13,0.307-0.39h-0.103l-0.717,0.075V9.191
			c0-1.58-0.382-2.371-1.147-2.371l-0.41-0.15c0.109-0.51,0.211-0.765,0.307-0.765c1.516,0.36,2.751,0.54,3.708,0.54l4.301-0.225
			l-0.205,0.915h-0.205c-1.297,0-1.946,0.51-1.946,1.531v8.627c0,2.082,0.375,3.121,1.126,3.121
			c0.683,0.311,1.543,0.465,2.581,0.465c1.816,0,3.318-0.559,4.506-1.68c0.273-0.68,0.566-1.27,0.88-1.771l-0.471-0.449
			c0-1.32-0.922-2.566-2.766-3.736c-1.775-0.76-3.113-1.14-4.014-1.14h-0.205v-0.165c0.437-1.12,0.99-1.681,1.659-1.681
			c0.874,0.31,1.522,0.465,1.946,0.465c1.215,0,2.035-0.94,2.458-2.821l0.348-0.48C23.943,6.11,22.598,5.07,20.14,4.3
			c-1.584-0.28-3.53-0.4-5.837-0.36c-2.308,0.04-5.292,0.495-8.951,1.366C4.765,5.455,4.345,5.53,4.092,5.53
			c-0.252,0-0.775-0.047-1.567-0.142C1.733,5.292,1.337,5.135,1.337,4.915l-1.434-2.446h0.205C1.665,3.08,3.72,3.384,6.273,3.384
			c1.297,0,3.468-0.197,6.514-0.593C15.832,2.396,17.874,2.214,18.911,2.244z"/>
		<path d="M25.856,2.169c0.887-1.31,1.778-2.061,2.673-2.25c0.894-0.19,2.072-0.09,3.534,0.3c1.461,0.4,2.895,1.261,4.301,2.581
			s2.697,3.031,3.871,5.131l0.431,1.141l-0.983,0.615l1.147,0.855l1.167,0.525l-0.041,0.795l0.901,0.781l-0.021,0.795l0.901,0.779
			c1.174,2.102,1.871,3.338,2.089,3.707c0.942-1.531,2.321-3.797,4.138-6.797l1.393-2.266c0.737-1.22,1.312-2.235,1.721-3.046
			c0.41-0.8,0.737-1.565,0.983-2.295c0.068-0.16,0.126-0.265,0.174-0.315c0.048-0.05,0.154-0.075,0.317-0.075h0.246l1.7,0.015
			l0.062,0.225l-0.205,0.075l0.513,0.075l0.409-0.075l0.062-0.195l0.594-0.09h0.963c1.297-0.02,2.137-0.045,2.52-0.075h0.43
			c0.164,0,0.27,0.032,0.317,0.097c0.048,0.065,0.072,0.198,0.072,0.398c0,0.25-0.007,0.427-0.021,0.533
			c-0.014,0.105-0.034,0.172-0.062,0.202c-0.041,0.04-0.13,0.075-0.267,0.105c-0.137,0.03-0.409,0.065-0.819,0.105
			c-0.505,0.06-0.895,0.132-1.167,0.217c-0.273,0.085-0.475,0.255-0.604,0.51s-0.215,0.62-0.256,1.095s-0.219,0.958-0.533,1.448
			c0.314,0.56,0.314,1.105,0,1.635l0.472,0.945l0.041,2.311l-0.144,4.125l-0.144,0.945l0.164,0.586l-0.43,1.08
			c0.45,0.57,0.709,1.033,0.778,1.389c0.067,0.355,0.197,0.627,0.389,0.816c0.191,0.191,0.447,0.324,0.769,0.398
			c0.32,0.074,0.747,0.123,1.279,0.143c0.383,0,0.604,0.018,0.666,0.053s0.093,0.207,0.093,0.518c0,0.301-0.021,0.484-0.062,0.555
			S62.247,23.4,62.11,23.4h-0.696c-0.287,0-0.632-0.006-1.034-0.016c-0.403-0.01-0.871-0.064-1.403-0.164s-1.052-0.15-1.557-0.15
			c-0.424,0.18-0.86,0.154-1.312-0.074c-0.245,0.229-0.594,0.229-1.044,0c-0.86-0.061-1.444-0.014-1.752,0.143
			c-0.307,0.154-0.699,0.236-1.178,0.246c-0.478,0.01-0.854,0.016-1.126,0.016h-0.267c-0.219,0-0.348-0.025-0.389-0.074
			c-0.041-0.051-0.062-0.256-0.062-0.615c0-0.24,0.03-0.391,0.092-0.451s0.181-0.1,0.358-0.119c0.778-0.041,1.386-0.104,1.823-0.188
			c0.437-0.086,0.751-0.281,0.942-0.586c0.19-0.305,0.341-1.059,0.45-2.258v-1.605v-1.111v-3.076l0.164-0.51l0.491-0.254
			l-0.307-0.616l-0.369-0.27v-0.585l0.062-2.446l0.062-0.795l-0.308,0.735l-0.491,1.216l-1.024,1.785l-1.721,2.835l-1.516,2.387
			c-0.806,1.279-1.488,2.408-2.048,3.383c-0.561,0.975-0.929,1.566-1.106,1.771s-0.761,0.24-1.751,0.104
			c-0.99-0.135-1.567-0.324-1.73-0.57c-0.164-0.244-0.465-0.771-0.901-1.582c-0.438-0.811-1.004-1.854-1.7-3.129
			s-1.611-2.912-2.745-4.914l-0.45-1.545l-0.655-0.495L35.79,8.756l-0.512-0.72L34.95,7.36l0.062,0.706l-0.185,0.48l0.185,0.405
			l-0.185,0.75l-0.021,0.315l0.021,0.271l0.185,0.18l-0.369,0.541l0.328,0.39l0.021,1.169l-0.144,1.336l-0.267,1.875
			c0.246,1.502,0.39,2.672,0.431,3.512s0.177,1.469,0.409,1.883c0.232,0.416,0.574,0.676,1.024,0.781
			c0.451,0.104,1.065,0.156,1.844,0.156c0.423,0.021,0.635,0.166,0.635,0.436c0,0.381-0.027,0.617-0.082,0.713
			S38.664,23.4,38.474,23.4h-0.472c-0.26,0-0.57-0.006-0.932-0.016c-0.362-0.01-0.737-0.02-1.127-0.029
			c-0.389-0.01-0.639-0.221-0.747-0.631c-1.024,0.111-1.544,0.23-1.557,0.361c-0.137,0.17-0.444,0.045-0.922-0.375
			c-0.479,0.42-0.95,0.635-1.414,0.645c-0.464,0.01-0.898,0.02-1.301,0.029S29.297,23.4,29.092,23.4
			c-0.11,0.029-0.226,0.045-0.349,0.045c-0.109,0-0.191,0-0.246,0c-0.15,0-0.243-0.037-0.276-0.113
			c-0.034-0.074-0.051-0.281-0.051-0.621c0-0.24,0.027-0.387,0.082-0.436c0.054-0.051,0.184-0.086,0.389-0.105
			c0.983-0.09,1.669-0.227,2.059-0.412s0.672-0.498,0.85-0.938c0.123-0.24,0.229-0.527,0.317-0.863s0.318-1.152,0.687-2.453
			l-0.164-3.332l0.103-2.76l0.103-2.521l0.041-0.57c0.027-0.68,0.041-1.14,0.041-1.38c0-0.49,0.01-0.908,0.03-1.253
			s-0.137-0.805-0.471-1.38c-0.335-0.575-1.175-1.16-2.52-1.755C28.372,1.957,27.085,1.829,25.856,2.169z"/>
	</g>
</g>
</svg>
