<?xml version="1.0" encoding="utf-8"?>
<!DOCTYPE svg PUBLIC "-//W3C//DTD SVG 1.1//EN" "http://www.w3.org/Graphics/SVG/1.1/DTD/svg11.dtd">
<svg version="1.1" id="Ebene_1" xmlns="http://www.w3.org/2000/svg" xmlns:xlink="http://www.w3.org/1999/xlink" x="0px" y="0px"
	 width="50px" height="300px" viewBox="0 0 50 300" enable-background="new 0 0 50 300" xml:space="preserve">
<path opacity="0.6" fill="#DCDCDC" enable-background="new    " d="M31.242,14.761L21.11,25l10.132,10.239
	c0.152,0.157,0.258,0.392,0.258,0.597c0,0.209-0.105,0.443-0.258,0.602l-1.289,1.302C29.797,37.893,29.564,38,29.361,38
	c-0.207,0-0.443-0.107-0.594-0.262L16.756,25.601C16.602,25.445,16.5,25.209,16.5,25s0.102-0.444,0.256-0.596L28.77,12.262
	C28.918,12.106,29.154,12,29.361,12c0.203,0,0.436,0.106,0.592,0.262l1.289,1.303c0.152,0.155,0.258,0.365,0.258,0.6
	C31.5,14.37,31.395,14.605,31.242,14.761"/>
<path opacity="0.6" fill="#DCDCDC" enable-background="new    " d="M18.758,64.762L28.891,75L18.758,85.238
	c-0.152,0.157-0.258,0.392-0.258,0.597c0,0.209,0.105,0.443,0.258,0.602l1.289,1.302C20.203,87.893,20.436,88,20.638,88
	c0.207,0,0.444-0.107,0.594-0.262L33.245,75.6c0.153-0.155,0.255-0.391,0.255-0.6c0-0.21-0.102-0.445-0.256-0.597L21.231,62.262
	C21.082,62.105,20.845,62,20.638,62c-0.202,0-0.435,0.105-0.591,0.262l-1.289,1.303c-0.152,0.155-0.258,0.365-0.258,0.6
	C18.5,64.37,18.605,64.605,18.758,64.762"/>
<path fill="#9D6DA0" d="M31.242,114.762L21.11,125l10.132,10.238c0.152,0.157,0.258,0.392,0.258,0.597
	c0,0.209-0.105,0.443-0.258,0.602l-1.289,1.302c-0.156,0.154-0.389,0.262-0.592,0.262c-0.207,0-0.443-0.107-0.594-0.262
	l-12.017-12.138c-0.154-0.155-0.256-0.392-0.256-0.601c0-0.21,0.102-0.445,0.256-0.597l12.017-12.142
	c0.146-0.156,0.387-0.262,0.594-0.262c0.203,0,0.436,0.105,0.592,0.262l1.289,1.303c0.152,0.155,0.258,0.365,0.258,0.6
	C31.5,114.37,31.395,114.605,31.242,114.762"/>
<path fill="#9D6DA0" d="M18.758,164.762L28.891,175l-10.133,10.238c-0.152,0.156-0.258,0.392-0.258,0.597
	c0,0.209,0.105,0.442,0.258,0.603l1.289,1.306c0.156,0.149,0.389,0.262,0.591,0.262c0.207,0,0.444-0.104,0.594-0.262l12.013-12.142
	c0.153-0.156,0.256-0.393,0.256-0.602c0-0.21-0.103-0.445-0.256-0.598L21.232,162.26c-0.149-0.154-0.387-0.263-0.594-0.263
	c-0.202,0-0.435,0.104-0.591,0.263l-1.289,1.305c-0.152,0.152-0.258,0.365-0.258,0.602C18.5,164.37,18.605,164.605,18.758,164.762"
	/>
<path fill="#815684" d="M31.242,214.762L21.11,225l10.132,10.238c0.152,0.156,0.258,0.392,0.258,0.597
	c0,0.209-0.105,0.442-0.258,0.603l-1.289,1.306c-0.156,0.149-0.389,0.262-0.592,0.262c-0.207,0-0.443-0.104-0.594-0.262
	l-12.017-12.142c-0.154-0.156-0.256-0.393-0.256-0.602c0-0.21,0.102-0.445,0.256-0.598l12.017-12.145
	c0.146-0.152,0.387-0.263,0.594-0.263c0.203,0,0.436,0.104,0.592,0.263l1.289,1.307c0.152,0.15,0.258,0.365,0.258,0.6
	C31.5,214.37,31.395,214.605,31.242,214.762"/>
<path fill="#815684" d="M18.758,264.762L28.891,275l-10.133,10.238c-0.152,0.156-0.258,0.392-0.258,0.597
	c0,0.209,0.105,0.442,0.258,0.603l1.289,1.301c0.156,0.154,0.389,0.267,0.591,0.267c0.207,0,0.444-0.104,0.594-0.267l12.013-12.137
	c0.153-0.156,0.256-0.393,0.256-0.602c0-0.21-0.103-0.445-0.256-0.598L21.232,262.26c-0.149-0.154-0.387-0.262-0.594-0.262
	c-0.202,0-0.435,0.104-0.591,0.262l-1.289,1.305c-0.152,0.153-0.258,0.365-0.258,0.603C18.5,264.37,18.605,264.605,18.758,264.762"
	/>
</svg>
